<svg width="268" height="431" viewBox="0 0 268 431" fill="none" xmlns="http://www.w3.org/2000/svg">
<path fill-rule="evenodd" clip-rule="evenodd" d="M209.759 252.961C206.999 251.897 204.338 250.667 201.914 248.859C194.927 243.234 190.371 234.77 186.066 226.75C180.002 215.085 175.682 202.656 172.696 189.69C171.413 184.119 170.977 177.66 168.062 172.721C161.453 162.379 142.074 163.719 131.784 165.534C124.893 166.853 123.469 175.193 121.904 181.364C120.6 186.492 119.747 191.678 119.031 196.933C117.327 198.144 115.404 199.128 113.571 199.985C93.5912 206.611 90.0796 218.895 82.4484 237.869C69.5593 265.448 34.5849 276.246 29.3019 308.884C25.8981 330.432 35.5775 350.704 45.557 368.618C54.8509 388.185 67.8258 397.576 88.4888 392.953C107.87 388.251 126.496 380.386 145.535 374.308C154.757 371.856 163.964 365.478 173.665 367.702C193.652 372.557 214.189 374.839 234.673 374.209C263.433 375.467 263.429 345.614 260.477 322.496C258.409 286.518 241.63 263.417 209.759 252.961V252.961Z" fill="#EDB98A"/>
<path fill-rule="evenodd" clip-rule="evenodd" d="M211.682 305.02C214.085 306.739 216.106 309.345 217.729 312.087C210.955 311.325 204.192 310.446 197.445 309.446C198.328 308.836 199.22 308.238 200.132 307.675C203.459 305.647 207.967 302.363 211.682 305.02ZM99.1362 326.676C97.895 326.15 97.4147 324.103 96.9309 322.93C95.4142 319.251 94.0299 315.509 92.5898 311.794C98.058 310.108 103.376 308.238 109.04 307.34C115.131 306.374 121.312 306.141 127.459 306.357C139.911 306.797 152.246 308.997 164.488 311.357C176.715 313.714 188.942 315.979 201.255 317.756C213.318 319.497 225.42 320.772 237.544 321.89C239.899 322.108 243.827 323.024 245.721 321.019C247.221 319.431 247.27 316.503 245.393 315.212C244.224 314.407 242.53 314.396 241.194 314.21C239.512 313.976 237.824 313.82 236.131 313.699C235.442 313.65 234.753 313.604 234.063 313.559C239.599 311.302 245.381 310.071 251.382 310.414C251.722 312.644 253.251 314.938 254.088 316.777C255.549 319.988 256.689 323.237 257.436 326.728C259 334.025 259.068 341.599 258.626 349.041C258.221 355.247 257.349 362.111 252.849 366.505C249.441 369.833 244.633 371.065 240.173 371.452C234.989 371.903 229.724 371.422 224.584 370.67C217.374 369.616 210.13 368.222 203.062 366.353C189.372 362.734 176.25 356.976 164.143 349.168C158.239 345.361 152.606 341.078 146.62 337.416C140.522 333.684 134.033 330.788 127.219 328.99C119.593 326.978 111.622 326.12 103.784 326.616C102.424 326.702 100.459 327.235 99.1362 326.676ZM90.2994 322.94C91.1007 325.752 91.7138 328.963 93.4241 331.326C95.1183 333.667 97.6741 334.494 100.322 334.702C103.514 334.953 106.744 334.792 109.944 334.921C116.506 335.184 122.978 336.337 129.251 338.451C135.097 340.422 140.523 343.496 145.751 346.906C150.584 350.059 155.276 353.445 160.112 356.589C158.825 357.227 157.553 357.917 156.273 358.518C153.59 359.778 150.89 360.994 148.178 362.18C142.83 364.517 137.46 366.798 132.035 368.917C121.095 373.189 109.975 376.922 98.722 380.102C93.3548 381.618 87.9114 383.39 82.3354 383.642C77.3909 383.866 72.811 382.354 68.8233 379.175C60.5522 372.58 53.9718 363.062 48.6523 353.673C45.4919 348.095 42.734 342.234 40.4528 336.174C39.299 333.109 38.2526 329.998 37.3108 326.85C36.869 325.372 36.4501 323.885 36.0534 322.392C35.8789 321.735 35.7117 321.077 35.5462 320.418C44.0038 317.626 52.5619 315.107 61.3208 313.708C65.9973 312.961 70.7361 312.583 75.4638 312.638C77.8105 312.665 80.1559 312.802 82.4901 313.064C83.7466 313.205 84.998 313.386 86.2439 313.611C86.7589 313.704 87.2881 313.841 87.8189 313.941C88.6297 316.946 89.4472 319.948 90.2994 322.94ZM265.129 310.993C265.585 309.996 265.777 309.015 265.941 307.929C266.065 307.101 266.396 305.935 266.106 304.86C265.782 303.656 264.899 302.579 264.265 301.552C263.565 300.417 262.865 299.281 262.166 298.145C260.769 295.872 259.374 293.597 257.982 291.321C252.297 282.026 246.65 272.704 240.995 263.387C235.976 255.12 231.042 246.778 225.87 238.622C221.448 231.647 216.628 224.787 210.574 219.363C202.921 212.504 193.808 209.274 184.288 206.752C183.249 205.585 181.86 204.948 180.376 205.077C178.279 202.505 176.612 200.708 175.856 197.437C175.494 195.87 175.608 191.468 174.197 190.541C172.521 189.439 171.645 190.897 171.183 192.54C169.637 198.037 171.412 205.427 175.496 210.932C173.775 217.364 171.494 226.505 167.424 231.658C163.065 237.176 157.038 238.893 150.535 239.006C138.133 239.222 125.744 234.237 116.285 225.598C113.409 222.973 110.739 220.04 108.323 216.921C106.511 214.581 104.368 210.97 102.95 208.241C102.95 207.177 101.789 206.065 113.611 205.206C125.433 204.346 126.329 186.84 126.592 184.458C126.806 182.523 127.714 179.52 126.453 177.942C125.918 177.272 124.821 177.165 124.142 177.62C122.863 178.479 122.443 180.675 122.041 182.167C121.478 184.256 119.636 197.225 116.147 198.727C114.514 199.43 112.641 199.443 110.913 199.573C108.779 199.734 106.641 199.852 104.516 200.12C103.732 200.219 102.877 200.493 102.104 200.501C101.6 200.507 101.081 200.242 100.595 200.057C98.9537 199.429 97.3136 199.9 95.6227 200.146C80.6724 202.318 65.2786 207.278 52.5266 216.201C41.2868 224.066 33.3683 235.377 28.1431 248.602C22.8119 262.098 19.7561 276.693 17.1952 291.06C16.3373 295.874 15.5881 300.71 14.9445 305.563C14.3225 310.252 13.5444 315.046 13.3581 319.783C13.2844 321.657 13.6985 323.398 14.3358 325.11C15.0535 327.036 16.7499 327.796 18.3769 328.696C21.9486 330.672 25.7164 332.204 29.5983 333.289C31.9697 337.955 33.9655 342.803 35.5694 347.834C34.9743 349.109 34.9619 351.013 34.8475 352.253C34.5637 355.338 34.4423 358.44 34.4168 361.54C34.3657 367.754 34.7112 373.961 34.982 380.164C35.2566 386.456 36.1695 411.282 36.3182 414.313C36.4339 416.668 36.2782 419.962 37.4253 422.053C39.1881 425.267 43.5388 425.158 45.5539 422.553C95.6227 434.194 189.738 430.687 227.643 424.831C232.574 424.069 231.026 424.914 232.28 423.566C233.221 422.554 234.022 420.821 234.282 419.429C234.63 417.57 234.069 415.888 233.085 414.383C232.05 412.802 231.862 410.241 231.477 408.361C230.569 403.916 230.117 384.394 229.692 382.231C229.56 381.557 229.432 380.844 229.278 380.131C236.231 380.844 243.475 380.844 250.09 378.329C253.841 376.903 257.339 374.662 260.032 371.464C263.292 367.591 265.106 362.715 266.039 357.626C267.243 351.063 267.499 344.266 267.262 337.594C266.933 329.71 265.724 321.715 262.723 314.476C263.711 313.484 264.538 312.287 265.129 310.993Z" fill="black"/>
<path fill-rule="evenodd" clip-rule="evenodd" d="M216.497 117.791C215.686 107.223 216.942 96.1461 212.898 86.101C205.845 69.4343 186.07 63.8773 170.74 57.532C164.598 55.7037 143.932 55.4482 136.74 53.0284C120.464 47.5518 116.576 41.0265 103.643 51.4541C101.46 53.2354 100.094 55.1714 99.0981 57.8166L99.1391 57.8279C98.8545 58.9307 99.1595 60.031 99.8007 60.8715C94.1933 66.6458 91.8468 75.3028 94.7238 82.9894C104.113 102.992 103.671 113.807 100.646 135.311C96.6957 155.386 105.723 162.719 120.673 173.642C120.065 174.831 119.938 176.411 120.732 177.461C138.02 201.935 170.616 213.621 198.545 201.198C209.882 196.115 214.943 183.952 217.831 172.977C221.196 160.688 222.23 147.739 219.491 135.221C218.386 129.432 216.947 123.684 216.497 117.791Z" fill="#EDB98A"/>
<path fill-rule="evenodd" clip-rule="evenodd" d="M92.6733 87.8116L102.953 94.7106L139.748 55.6306L127.504 45.9214C127.504 45.9214 105.289 62.462 100.921 66.8275C96.5528 71.193 92.6733 87.8116 92.6733 87.8116Z" fill="#9FD8E5"/>
<path fill-rule="evenodd" clip-rule="evenodd" d="M116.776 0.703404C118.875 0.385947 120.459 1.6976 121.213 3.54636L121.253 3.6459C121.495 4.27497 121.765 4.88684 122.055 5.4884C127.306 2.89309 134.799 3.55997 138.122 8.8159C140.493 12.5697 139.047 17.0247 138.153 21.0053L137.566 23.6281C138.7 24.3554 139.556 25.6578 139.516 27.0065L139.511 27.1103L139.272 30.7678C140.029 29.9943 140.722 29.1522 141.34 28.255C141.766 27.4678 142.227 26.6943 142.722 25.945C145.632 21.5347 152.166 25.3675 149.764 30.0906C149.303 31.0015 148.785 31.8643 148.229 32.6962C147.601 33.9234 147.086 35.185 146.69 36.4809C147.826 36.9793 148.7 38.0862 148.792 39.7568C149.007 43.6584 146.973 46.9137 143.738 48.959C142.786 49.5606 141.804 49.6775 140.913 49.454C140.756 49.6672 140.599 49.8803 140.449 50.0968C141.739 51.1521 142.902 52.3553 143.902 53.689C146.912 53.2353 149.938 53.0222 152.965 53.0153C156.663 51.19 161.092 51.2278 165.067 51.9118C167.626 52.3518 170.083 53.2078 172.601 53.8231C175.256 54.4693 177.951 54.4934 180.637 54.9334C184.021 55.4868 186.99 57.0612 188.856 59.574C190.907 59.6359 193.063 60.4815 194.851 61.6297C199.014 64.304 203.153 67.0162 207.305 69.7078C208.899 70.7411 209.495 72.3907 209.202 74.2307L209.182 74.3484L209.042 75.1115L209.371 75.5812C210.641 77.3892 212.024 79.2829 212.846 81.2784C214.368 83.4887 215.743 85.8056 216.961 88.1946C218.603 91.4053 219.957 94.8084 220.875 98.3009C221.104 99.1843 221.332 100.075 221.482 100.975C221.697 102.247 221.366 103.234 221.186 104.454C220.96 106.001 220.879 107.568 220.64 109.119C220.479 110.147 219.613 110.652 218.705 110.679C219.046 113.295 219.292 115.928 219.527 118.541C219.858 122.274 220.084 126.017 220.278 129.761C221.281 131.229 223.332 132.391 224.813 132.793C226.863 133.346 229.013 132.745 230.951 132.04C232.169 131.597 233.169 133.14 232.575 134.171C230.709 137.409 226.717 137.396 223.693 135.962C222.414 135.357 221.291 134.481 220.459 133.339C220.51 134.426 220.565 135.512 220.619 136.602L220.67 137.589C221.285 149.115 222.612 161.038 220.462 172.451C216.74 192.22 200.501 207.273 180.664 208.442C170.254 209.055 161.586 205.958 157.275 204.23C152.965 202.502 154.64 198.979 157.632 199.986C162.787 201.721 172.257 204.305 180.732 203.189C200.706 200.559 217.644 190.501 215.904 147.182C215.657 141.039 214.897 134.893 214.733 128.75C214.576 122.745 214.634 116.736 214.372 110.734L214.284 108.687C214.182 106.294 214.072 103.89 213.894 101.494C213.679 100.566 213.502 99.6243 213.239 98.7134C212.526 96.235 211.594 93.8253 210.438 91.5256C210.182 91.7215 209.895 91.8625 209.585 91.9175C207.227 92.3437 205.016 92.2234 202.808 91.2334C201.778 90.7762 200.87 90.1678 200.024 89.415C199.621 89.0609 199.352 88.7171 199.14 88.3596C198.072 88.3768 197.004 88.0537 196.335 87.2803C195.573 86.3987 195.446 85.4882 195.745 84.6453L195.776 84.5612L195.701 84.5337C194.8 86.8815 193.005 88.9475 191.037 90.3431C187.925 92.5568 184.032 93.1962 180.299 93.2546C176.177 93.3165 171.83 92.6771 167.763 92.024C166.688 91.8521 165.62 91.6562 164.572 91.3915C164.532 91.4328 164.491 91.4809 164.446 91.5221C160.956 94.8875 156.046 95.7537 151.617 93.8322C149.058 92.7218 146.912 90.9343 145.014 88.8856C144.987 89.9581 144.933 91.0306 144.84 92.0928L144.802 92.5146C144.613 94.4929 144.25 96.5913 142.766 98.019C140.367 100.332 136.887 99.4043 134.12 97.8987C134.123 97.9709 134.123 98.0465 134.123 98.1221C134.87 100.68 135.621 103.241 136.372 105.802L136.533 106.347C137.079 108.165 137.678 109.986 137.842 111.889C138.156 115.526 135.754 119.118 131.742 117.898C129.637 117.26 127.951 115.477 126.333 114.049L125.313 113.161C127.951 121.848 129.78 130.844 129.95 139.908C129.96 140.4 129.541 140.771 129.077 140.788C127.992 140.833 126.825 140.617 125.733 140.18C125.671 140.177 125.61 140.173 125.545 140.163C123.682 139.891 121.952 139.214 120.427 138.214C120.779 139.338 120.935 140.544 120.843 141.806C120.819 142.112 120.345 142.218 120.277 141.882C119.397 137.519 114.33 134.223 109.962 135.058C105.274 135.955 101.821 140.018 100.975 144.642C100.067 149.609 101.804 155.353 105.022 159.186C106.502 160.953 108.451 162.427 110.764 162.799C111.822 162.967 112.921 162.909 113.948 162.606C114.384 162.476 114.794 162.293 115.21 162.122C115.817 161.874 116.527 161.836 117.1 161.575C118.4 160.987 119.707 162.194 119.049 163.538C118.475 164.71 117.96 165.501 117.008 166.106C117.779 167.054 118.479 168.374 118.738 168.728C120.062 170.53 121.406 172.231 122.914 173.878C124.45 175.548 126.125 177.075 127.896 178.487L128.64 179.08C130.346 180.443 131.832 181.706 133.035 183.661C133.983 185.204 132.755 187.298 130.977 187.274C125.416 187.195 121.372 182.272 118.492 177.972C118.083 177.357 117.697 176.707 117.339 176.04C117.21 176.25 117.066 176.446 116.906 176.624L117.223 177.484C118.165 180.014 114.108 181.667 112.931 179.306C112.074 177.594 111.081 175.964 109.976 174.424C109.324 174.332 108.686 173.933 108.331 173.417C107.434 172.107 106.427 170.784 105.578 169.388C105.107 168.938 104.622 168.505 104.128 168.082C103.984 168.209 103.838 168.337 103.698 168.471C103.077 169.897 102.309 171.2 101.357 172.427L101.153 172.689C99.3292 175.005 96.9537 177.374 94.0142 177.941C93.1169 178.113 92.2536 176.989 93.0486 176.27C95.1061 174.407 97.5389 173.139 99.436 171.059C100.371 170.034 101.229 168.906 101.967 167.723L102.135 167.45C102.258 167.247 102.384 167.044 102.514 166.838C101.657 166.25 100.801 165.659 99.9444 165.067C97.5868 167.097 94.5165 168.025 91.9088 169.706L91.6497 169.877C89.2919 171.465 86.8079 167.952 88.6982 166.023C90.782 163.905 92.5214 161.38 94.3674 159.026C93.4993 157.415 93.0885 155.51 92.9346 153.585C92.8739 153.04 92.8265 152.495 92.7791 151.95C91.4552 151.971 90.1245 151.513 88.9985 150.726L88.572 150.42C87.2037 150.86 85.7672 151.073 84.3922 151.036C81.1575 150.939 79.8337 147.217 81.857 144.862C83.9213 142.456 87.5347 141.93 90.3974 143.098C90.4896 143.05 90.5851 142.999 90.6772 142.947C90.5407 142.315 90.5711 141.741 90.7264 141.237L90.6813 140.93C90.0518 139.957 89.6379 138.846 89.4809 137.672C89.3567 136.742 89.382 135.82 89.5956 134.902C89.6666 134.596 89.8143 134.28 89.9272 133.961C89.6945 133.369 89.5577 132.757 89.5154 132.142C89.4502 132.064 89.3854 131.984 89.324 131.897C87.9035 129.888 88.1905 127.467 89.5424 125.841C89.5485 125.738 89.5581 125.634 89.5721 125.531C89.4929 125.352 89.4202 125.171 89.354 124.988C88.0332 123.645 87.0635 122.03 87.2443 120.028C87.3504 118.851 87.8309 117.79 88.558 116.998C88.429 116.614 88.4167 116.169 88.573 115.797C87.4125 112.688 87.5593 108.942 88.3945 105.465C88.2103 104.935 88.1148 104.361 88.1352 103.753C88.2308 101.171 90.4486 98.7993 93.0759 98.8303C93.3922 98.833 93.6884 98.8746 93.9729 98.9355L93.9767 98.8739C94.0774 98.0991 94.2889 97.3831 94.5977 96.7406C94.4459 96.6853 94.3053 96.6059 94.1821 96.5003C92.4986 97.4051 90.7171 98.0967 88.8494 98.568C87.476 98.9145 86.0692 97.3418 86.9229 96.0431C87.3191 95.4405 87.7561 94.8995 88.227 94.4052C87.5576 94.409 86.8779 94.4547 86.1903 94.5437C84.9552 94.7053 83.5767 93.8562 82.7749 92.7081C81.7785 93.6843 80.7788 94.6571 79.7791 95.63C77.2473 98.1015 73.4224 96.2831 73.0232 93.0243C72.2691 92.8215 71.5662 92.4778 70.9486 91.9862C66.9565 93.7325 62.6607 94.6915 58.2693 94.8737C55.1166 95.0043 53.2741 91.3056 54.7481 88.6931C55.7376 86.94 56.9659 85.3656 58.3819 83.9975C56.1846 84.6746 53.9155 85.1628 51.5987 85.4756C50.3465 85.644 48.5756 84.599 48.0741 83.4406C46.1565 78.9856 46.3203 74.3415 48.5279 70.0068C48.6132 69.835 48.7087 69.67 48.8008 69.505C49.0295 68.9309 49.2785 68.3637 49.5481 67.8068C46.8321 64.9537 46.5966 60.7118 48.0604 57.1609C47.4735 56.2018 47.2484 55.0468 47.6476 54.0018C48.7838 50.994 50.4216 48.2165 52.4893 45.8309C52.2914 45.4459 52.1174 45.0368 51.9707 44.5968C50.8071 41.039 52.1549 36.7456 54.8743 34.2672C56.5838 32.7065 58.5491 31.7715 60.6476 31.1734C61.5313 29.599 62.6675 28.1793 63.9914 26.9831C64.0426 26.8697 64.0938 26.7562 64.1518 26.6428C66.2127 22.7309 69.9659 20.634 73.9888 20.1493C74.1457 18.6197 75.1693 17.1587 76.657 16.6843C77.0665 15.3609 77.6772 14.0959 78.5166 12.9478C79.8371 11.1397 82.031 10.2872 84.0987 11.4731C85.2316 12.1228 86.3166 12.8687 87.3334 13.6937C87.7901 13.4779 88.3078 13.3383 88.892 13.2938L89.0394 13.2847L92.4037 13.1128C93.8129 12.4837 95.2187 11.8237 96.6279 11.1809C97.4741 10.4762 98.4192 9.8884 99.4497 9.45184C100.617 8.96028 101.811 8.68184 103.008 8.58903C103.981 8.26934 104.96 7.98747 105.956 7.76747C108.297 7.25184 110.747 6.96309 113.176 6.98715C113.226 6.35367 113.251 5.71261 113.246 5.06398L113.241 4.73903C113.187 2.65934 114.835 0.999029 116.776 0.703404ZM114.418 167.096C114.084 167.168 113.746 167.226 113.408 167.267C113.511 167.522 113.613 167.776 113.712 168.031C113.985 168.185 114.261 168.333 114.538 168.471C114.456 168.003 114.408 167.532 114.418 167.096ZM96.8882 161.848L96.6614 162.268C96.6246 162.337 96.5884 162.405 96.5528 162.472C97.0339 162.434 97.5184 162.445 97.9961 162.5L97.9948 162.448C97.9333 162.427 97.8719 162.408 97.8132 162.379C97.4836 162.22 97.1772 162.041 96.8882 161.848ZM106.363 142.648C109.381 142.825 111.939 143.292 114.684 144.622L114.92 144.738C117.346 145.952 121.359 148.193 121.021 151.407C120.925 152.321 120.267 153.284 119.229 153.212C116.387 153.016 114.763 150.128 112.839 148.327C110.897 146.512 108.512 144.645 106.161 143.397C105.829 143.222 105.96 142.666 106.321 142.648L106.363 142.648ZM92.6733 100.302C91.9499 100.326 92.1922 101.033 92.5641 100.442C92.5948 100.394 92.6323 100.346 92.6733 100.302ZM131.72 53.0283C124.869 53.2098 117.974 57.285 112.842 61.4041C108.377 64.9877 104.522 69.2502 101.108 73.8445C100.23 76.1325 99.4759 78.4682 98.8389 80.8212C98.4192 82.375 98.1565 83.9459 97.805 85.5134L97.6959 85.994C97.4198 86.5137 97.2148 87.073 97.0653 87.6508C97.6873 88.2792 98.4943 88.7292 99.3828 88.9426C99.6691 89.0114 99.9069 89.1602 100.095 89.3575C100.81 88.1551 101.435 86.886 101.799 85.5405L101.812 85.4783C103.187 83.2099 104.68 81.012 106.281 78.8893C110.696 73.0284 115.558 67.6865 121.403 63.2418C125.835 59.8731 130.79 57.2331 136.058 55.5178C134.768 54.4697 133.304 53.6406 131.72 53.0283Z" fill="black"/>
<path fill-rule="evenodd" clip-rule="evenodd" d="M159.583 176.836C162.183 169.563 168.092 164.127 174.989 162.031C180.054 160.496 185.403 160.42 190.611 160.865C193.339 161.096 196.264 161.27 198.855 162.338C201.067 163.25 202.893 165.029 204.283 167.133C205.937 169.627 207.089 172.499 207.919 175.45C208.036 175.869 208.148 176.292 208.252 176.717C207.971 178.964 207.309 180.886 205.479 182.337C203.694 183.753 201.539 184.365 199.383 184.614C199.168 184.505 198.961 184.393 198.771 184.278C195.356 182.207 192.872 177.185 188.638 177.969C184.86 178.669 182.482 184.043 180.297 187.212C173.079 188.317 165.791 186.058 159.797 181.579C159.463 180.006 159.41 178.415 159.583 176.836M213.028 170.148C212.408 168.35 211.639 166.612 210.738 164.98C207.757 159.58 203.272 155.326 198.007 152.956C185.553 147.357 169.703 151.864 159.968 161.733C156.643 165.107 153.315 170.029 152.392 175.264C152.083 175.339 151.794 175.526 151.559 175.785C144.256 170.904 136.744 166.219 130.793 159.359C126.472 154.374 123.411 148.429 121.471 141.863C121.312 141.322 120.527 141.42 120.565 142.021C120.575 142.161 120.585 142.302 120.595 142.442C120.514 142.185 120.162 142.326 120.141 142.578C119.357 150.626 118.342 159.163 119.633 167.205C120.405 172.004 122.446 175.484 125.155 179.23C128.057 183.245 131.324 186.966 134.659 190.531C136.775 192.793 138.991 195.408 141.557 197.044C144.541 198.945 147.91 200.365 151.081 201.811C154.308 203.288 157.58 204.645 160.909 205.81C167.563 208.149 174.422 209.714 181.378 210.309C186.948 210.784 193.313 211.295 198.585 208.844C202.626 206.967 205.848 203.665 208.374 199.723C211.124 195.431 213.265 190.564 214.394 185.457C215.567 180.152 213.319 170.992 213.028 170.148" fill="black"/>
<path fill-rule="evenodd" clip-rule="evenodd" d="M181.575 133.096C184.511 134.979 189.222 139.501 187.107 144.749C184.403 149.428 178.85 144.597 176.143 142.424C173.683 140.762 171.874 145.538 174.217 147.51C193.694 162.631 196.424 132.72 182.566 130.608C181.04 130.375 180.792 132.505 181.575 133.096Z" fill="#231F20"/>
<path fill-rule="evenodd" clip-rule="evenodd" d="M186.617 107.188L187.18 107.023C193.314 105.254 201.759 103.62 207.539 106.814C208.089 107.399 208.082 107.586 208.061 107.717L208.054 107.761C208.038 107.872 208.057 108.004 207.79 108.254C207.686 108.281 207.581 108.308 207.473 108.334C206.104 108.666 204.912 108.776 203.741 108.858L202.468 108.943C200.994 109.045 199.522 109.169 198.065 109.445C194.955 110.034 191.921 110.871 189.012 111.961C188.382 112.198 187.696 112.315 187.045 112.253C186.427 112.194 185.835 111.982 185.331 111.557C184.68 111.008 184.387 110.493 184.385 109.704C184.385 109.112 184.614 108.587 185 108.158C185.395 107.721 185.958 107.383 186.617 107.188Z" fill="#231F20"/>
<path fill-rule="evenodd" clip-rule="evenodd" d="M155.211 108.3L155.973 108.189C158.332 107.847 161.265 107.519 162.934 109.106C163.819 109.948 164.124 111.512 162.934 112.318C160.841 113.735 158.528 113.186 156.02 113.306C153.954 113.405 151.967 113.691 149.977 114.168C145.61 115.212 142.051 117.119 138.321 119.213C137.832 119.488 137.332 118.964 137.566 118.581C139.719 115.051 143.892 112.152 148.071 110.385C150.302 109.442 152.743 108.659 155.211 108.3Z" fill="#231F20"/>
<path fill-rule="evenodd" clip-rule="evenodd" d="M186.209 167.431C182.795 167.795 176.994 168.068 176.299 167.945C175.604 167.823 174.909 166.862 175.126 166.353C175.48 166.332 175.83 166.31 176.162 166.28C178.374 166.078 192.696 164.91 193.988 164.72C194.208 164.688 194.486 165.022 194.509 165.414C194.532 165.806 188.537 167.184 186.209 167.431M196.029 163.751C193.16 163.827 188.873 164.18 186.01 164.385C183.139 164.59 180.266 164.786 177.394 165.006C176.028 165.11 174.661 165.229 173.294 165.342C172.303 165.423 171.141 165.446 170.77 166.256C170.5 166.849 170.805 167.615 170.975 168.188C171.197 168.939 171.56 169.652 172.041 170.331C172.93 171.591 174.247 172.688 175.944 173.427C179.851 175.132 185.457 174.549 189.65 173.207C194.169 171.76 198.151 168.552 197.392 164.923C197.311 164.532 196.856 163.728 196.029 163.751" fill="#221E1F"/>
<path fill-rule="evenodd" clip-rule="evenodd" d="M172.924 166.259L193.402 164.323L194.862 166.727C194.862 166.727 179.827 170.812 174.302 169.62L172.924 166.259Z" fill="white"/>
<path fill-rule="evenodd" clip-rule="evenodd" d="M208.243 129.245C207.56 129.698 207.003 129.882 206.164 129.764C205.7 129.699 205.226 129.518 204.837 129.241C204.451 128.967 204.151 128.602 203.996 128.173C203.615 127.115 202.841 126.18 201.841 125.638C200.987 125.174 199.964 125.004 198.897 125.321C197.744 125.662 196.716 126.517 196.054 127.45C195.833 127.763 195.672 128.105 195.511 128.446C195.208 129.083 194.91 129.677 194.442 130.178C194.265 130.368 193.981 130.522 193.69 130.561C193.572 130.577 193.45 130.575 193.332 130.557C192.016 129.618 191.68 128.816 191.609 127.986C191.534 127.116 191.784 126.19 192.266 125.294C193.399 123.19 195.822 121.265 197.551 120.67C199.918 119.856 202.411 120.117 204.515 121.124C206.68 122.16 208.424 123.986 209.187 126.206C209.37 126.74 209.402 127.34 209.245 127.884C209.093 128.416 208.768 128.897 208.243 129.245Z" fill="black"/>
<path fill-rule="evenodd" clip-rule="evenodd" d="M154.872 130.21C153.979 129.774 152.989 129.716 151.986 130.367C151.202 130.875 149.91 132.391 149.118 134.262C148.577 135.543 148.266 137.001 148.561 138.437C148.63 138.771 148.543 139.035 148.379 139.244C148.249 139.409 148.048 139.544 147.8 139.611C147.589 139.668 147.345 139.675 147.142 139.638C146.754 139.567 146.524 139.343 146.423 139.148C145.447 137.269 145.463 135.024 146.001 132.928C146.727 130.099 148.393 127.587 149.583 126.69C151.62 125.153 154.209 124.747 156.58 125.715C158.599 126.539 160.002 128.118 161.403 129.731C161.701 130.074 161.996 130.415 162.299 130.748C162.907 131.415 163.054 132.137 162.939 132.789C162.812 133.511 162.332 134.171 161.675 134.571C161.067 134.94 160.324 135.08 159.624 134.879C159.032 134.708 158.455 134.299 158.023 133.53C157.295 132.237 156.184 130.85 154.872 130.21V130.21Z" fill="black"/>
</svg>
