<svg width="1085" height="938" viewBox="0 0 1085 938" fill="none" xmlns="http://www.w3.org/2000/svg">
<g clip-path="url(#clip0)">
<path d="M509.72 90.1538C333.797 0.593057 -280.808 68.3825 -280.808 68.3825L-330.435 948.452C-330.435 948.452 174.224 1152.76 498.263 1095.65C730.653 1054.71 954.521 1020.9 1010.21 854.628C1084.05 634.187 444.319 716.812 372.342 496.238C320.532 337.471 685.642 179.714 509.72 90.1538Z" stroke="#CEF6FF" stroke-width="2"/>
</g>
<g clip-path="url(#clip1)">
<path d="M444.58 117.303C285.907 38.446 -241.299 133.113 -241.299 133.113L-221.52 991.192C-221.52 991.192 229.906 1166.24 506.343 1095.56C704.594 1044.88 895.978 1001.54 932.336 837.247C980.536 619.441 432.639 729.71 354.607 518.595C298.439 366.638 603.254 196.16 444.58 117.303Z" fill="#CEF6FF"/>
</g>
<defs>
<clipPath id="clip0">
<rect width="1337.9" height="1140.03" transform="matrix(-0.999621 -0.0275298 -0.0563004 0.998414 1058.77 67.6232)" fill="white"/>
</clipPath>
<clipPath id="clip1">
<rect width="1160.66" height="1029.97" transform="matrix(-0.999734 0.0230439 0.0230439 0.999734 918.262 69.7117)" fill="white"/>
</clipPath>
</defs>
</svg>
