<svg width="1006" height="1024" viewBox="0 0 1006 1024" fill="none" xmlns="http://www.w3.org/2000/svg">
<g clip-path="url(#clip0)">
<path d="M411.404 70.2315C547.322 -11.2895 1006.05 70.2315 1006.05 70.2315V918.428C1006.05 918.428 618.373 1101.65 377.424 1038.11C204.624 992.555 37.9206 954.095 3.1348 792.612C-42.9822 578.528 433.982 674.991 497.382 464.642C543.018 313.235 275.485 151.752 411.404 70.2315Z" stroke="#DAF8FF" stroke-width="2"/>
</g>
<g clip-path="url(#clip1)">
<path d="M428.544 1.44438C560.544 -85.0556 1006.04 1.44438 1006.04 1.44438V901.445C1006.04 901.445 629.547 1095.86 395.544 1028.44C227.725 980.1 65.8275 939.29 32.0444 767.945C-12.7432 540.785 450.472 643.14 512.044 419.944C556.364 259.29 296.544 87.944 428.544 1.44438Z" stroke="#DAF8FF" stroke-width="2"/>
</g>
<g clip-path="url(#clip2)">
<path d="M521.041 91.422C631.897 13.9725 1006.04 91.422 1006.04 91.422V897.256C1006.04 897.256 689.847 1071.33 493.327 1010.96C352.389 967.681 216.424 931.141 188.052 777.724C150.438 574.332 539.456 665.977 591.166 466.134C628.386 322.289 410.184 168.871 521.041 91.422Z" fill="#DAF8FF"/>
</g>
<defs>
<clipPath id="clip0">
<rect y="34" width="1006" height="1097" fill="white"/>
</clipPath>
<clipPath id="clip1">
<rect x="29" y="-37" width="977" height="1164" fill="white"/>
</clipPath>
<clipPath id="clip2">
<rect x="185.495" y="57" width="820.505" height="967" fill="white"/>
</clipPath>
</defs>
</svg>
