<svg width="1152" height="902" viewBox="0 0 1152 902" fill="none" xmlns="http://www.w3.org/2000/svg">
<g clip-path="url(#clip0)">
<path d="M592.466 152.535C430.899 77.1673 -83.8789 206.336 -83.8789 206.336L-11.3232 1118.46C-11.3232 1118.46 445.288 1280.42 713.907 1190.29C906.553 1125.67 1092.87 1069.22 1118.62 892.424C1152.76 658.031 618.516 804.918 528.412 584.452C463.555 425.762 754.032 227.903 592.466 152.535Z" stroke="#CEF6FF" stroke-width="2"/>
</g>
<g clip-path="url(#clip1)">
<path d="M567.086 80.1146C409.55 -0.96225 -89.7616 132.364 -89.7616 132.364L-12.7745 1100.2C-12.7745 1100.2 432.083 1275.2 692.47 1181.53C879.212 1114.36 1059.86 1055.83 1083.63 868.513C1115.14 620.18 597.036 772.159 507.912 537.711C443.76 368.959 724.622 161.191 567.086 80.1146Z" stroke="#CEF6FF" stroke-width="2"/>
</g>
<g clip-path="url(#clip2)">
<path d="M469.577 185.242C336.864 111.985 -82.0568 229.123 -82.0568 229.123L-13.1248 1095.69C-13.1248 1095.69 361.399 1254.28 579.758 1171.58C736.358 1112.29 887.878 1060.69 907.025 893.144C932.408 671.019 497.779 804.768 421.87 594.541C367.231 443.222 602.29 258.499 469.577 185.242Z" fill="#CEF6FF"/>
</g>
<defs>
<clipPath id="clip0">
<rect width="1147.84" height="1183.41" transform="matrix(-0.996851 0.0792952 0.0792952 0.996851 1057.3 76.3513)" fill="white"/>
</clipPath>
<clipPath id="clip1">
<rect width="1114.75" height="1255.68" transform="matrix(-0.996851 0.0792952 0.0792952 0.996851 1018.24 2.62378)" fill="white"/>
</clipPath>
<clipPath id="clip2">
<rect width="936.188" height="1043.17" transform="matrix(-0.996851 0.0792952 0.0792952 0.996851 848.281 117.868)" fill="white"/>
</clipPath>
</defs>
</svg>
