<svg width="490" height="512" viewBox="0 0 490 512" fill="none" xmlns="http://www.w3.org/2000/svg">
<path d="M90.5394 54.2055C37.7896 101.097 2.79746 185.085 2.68217 268.588C2.56688 352.091 37.3285 435.108 89.266 474.523C141.2 514.34 210.306 510.955 276.722 508.348C343.138 505.742 406.529 503.91 436.068 464.836C465.608 425.762 460.958 349.844 460.658 274.768C460.359 199.692 464.742 125.863 436.019 78.2292C407.291 30.9966 345.792 9.96173 279.791 4.14138C213.789 -1.67897 143.285 7.71516 90.5394 54.2055Z" fill="#98E2F5"/>
<path d="M467.725 108.2H417.724V106.214C417.724 104.398 416.971 102.656 415.632 101.372C414.292 100.088 412.475 99.3663 410.581 99.3663C408.687 99.3663 406.87 100.088 405.53 101.372C404.191 102.656 403.438 104.398 403.438 106.214V108.2H353.439C347.756 108.2 342.305 110.364 338.287 114.216C334.269 118.069 332.011 123.294 332.011 128.742V149.285C330.117 149.285 328.3 150.007 326.96 151.291C325.621 152.575 324.868 154.317 324.868 156.133V169.828C324.868 171.644 325.621 173.386 326.96 174.67C328.3 175.954 330.117 176.676 332.011 176.676V190.371C330.117 190.371 328.3 191.092 326.96 192.376C325.621 193.66 324.868 195.402 324.868 197.218V210.913C324.868 212.729 325.621 214.471 326.96 215.755C328.3 217.04 330.117 217.761 332.011 217.761V361.56C332.011 367.008 334.269 372.233 338.287 376.086C342.305 379.938 347.756 382.103 353.439 382.103H403.438V409.493C403.438 411.309 404.191 413.051 405.53 414.335C406.87 415.619 408.687 416.341 410.581 416.341C412.475 416.341 414.292 415.619 415.632 414.335C416.971 413.051 417.724 411.309 417.724 409.493V382.103H467.725C473.407 382.103 478.855 379.938 482.873 376.086C486.895 372.233 489.151 367.008 489.151 361.56V128.742C489.151 123.294 486.895 118.069 482.873 114.216C478.855 110.364 473.407 108.2 467.725 108.2ZM353.439 121.895H467.725C468.958 121.914 470.166 122.239 471.231 122.839C472.292 123.439 473.177 124.294 473.793 125.318H464.151C461.031 125.387 457.965 126.138 455.193 127.515C452.421 128.891 450.012 130.857 448.152 133.262C446.948 134.962 445.346 136.368 443.472 137.367C441.599 138.366 439.508 138.93 437.366 139.014H383.796C381.654 138.93 379.563 138.366 377.69 137.367C375.817 136.368 374.214 134.962 373.01 133.262C371.151 130.857 368.742 128.891 365.97 127.515C363.196 126.138 360.132 125.387 357.01 125.318H347.368C347.985 124.294 348.868 123.439 349.932 122.839C350.996 122.239 352.205 121.914 353.439 121.895ZM474.867 361.56C474.867 363.376 474.112 365.118 472.774 366.402C471.436 367.686 469.616 368.408 467.725 368.408H353.439C351.545 368.408 349.728 367.686 348.388 366.402C347.049 365.118 346.296 363.376 346.296 361.56V323.899H474.867V361.56ZM346.296 317.051V132.166H357.01C359.152 132.25 361.243 132.814 363.116 133.813C364.989 134.812 366.592 136.218 367.796 137.918C369.656 140.323 372.064 142.289 374.837 143.665C377.61 145.042 380.674 145.793 383.796 145.861H437.366C440.5 145.803 443.579 145.057 446.365 143.68C449.151 142.303 451.57 140.332 453.436 137.918C454.64 136.218 456.246 134.812 458.116 133.813C459.991 132.814 462.08 132.25 464.223 132.166H474.867V317.051H346.296Z" fill="#190933"/>
<path d="M410.581 135.59C412.553 135.59 414.153 134.057 414.153 132.166C414.153 130.275 412.553 128.742 410.581 128.742C408.609 128.742 407.01 130.275 407.01 132.166C407.01 134.057 408.609 135.59 410.581 135.59Z" fill="#190933"/>
<path d="M153.442 139.014C154.389 139.014 155.298 138.653 155.967 138.011C156.637 137.369 157.013 136.498 157.013 135.59C157.013 134.682 156.637 133.811 155.967 133.169C155.298 132.527 154.389 132.166 153.442 132.166C137.346 132.184 121.914 138.322 110.532 149.234C99.1501 160.145 92.7476 174.939 92.7288 190.37C92.7288 191.278 93.105 192.149 93.7747 192.791C94.4445 193.433 95.3529 193.794 96.2999 193.794C97.2473 193.794 98.1557 193.433 98.8254 192.791C99.4952 192.149 99.8714 191.278 99.8714 190.37C99.8714 176.75 105.516 163.687 115.562 154.056C125.608 144.424 139.234 139.014 153.442 139.014Z" fill="#190933"/>
<path d="M149.871 80.8092V94.5042C149.871 95.4124 150.247 96.2833 150.917 96.9254C151.587 97.5674 152.495 97.9281 153.442 97.9281C154.389 97.9281 155.298 97.5674 155.967 96.9254C156.637 96.2833 157.013 95.4124 157.013 94.5042V80.8092C157.013 79.9013 156.637 79.0305 155.967 78.3884C155.298 77.7463 154.389 77.3853 153.442 77.3853C152.495 77.3853 151.587 77.7463 150.917 78.3884C150.247 79.0305 149.871 79.9013 149.871 80.8092Z" fill="#190933"/>
<path d="M103.442 110.802C104.069 110.781 104.681 110.616 105.228 110.322C106.039 109.865 106.629 109.119 106.87 108.248C107.11 107.376 106.982 106.448 106.514 105.666L99.3709 93.7512C99.165 93.3146 98.866 92.9242 98.4932 92.6054C98.1203 92.2865 97.6816 92.0465 97.2056 91.9006C96.7296 91.7542 96.2272 91.7056 95.7302 91.7574C95.2336 91.8093 94.7534 91.9605 94.3215 92.2013C93.8895 92.4421 93.515 92.767 93.2222 93.1554C92.9295 93.5438 92.7248 93.9864 92.6221 94.4552C92.5189 94.924 92.5198 95.4081 92.6242 95.8769C92.7286 96.3453 92.9341 96.7876 93.2281 97.1748L100.371 109.09C100.683 109.607 101.13 110.037 101.669 110.338C102.208 110.638 102.819 110.798 103.442 110.802Z" fill="#190933"/>
<path d="M65.0859 145.382C65.6154 145.714 66.2391 145.881 66.8716 145.861C67.4948 145.857 68.1063 145.698 68.6451 145.397C69.1839 145.097 69.6314 144.667 69.943 144.149C70.4116 143.367 70.5394 142.439 70.2987 141.568C70.058 140.696 69.4681 139.95 68.6573 139.493L56.2289 132.645C55.8247 132.363 55.3634 132.166 54.8747 132.066C54.3861 131.966 53.8809 131.965 53.3919 132.064C52.9029 132.163 52.441 132.359 52.036 132.64C51.631 132.92 51.292 133.279 51.0408 133.693C50.7897 134.108 50.632 134.567 50.5779 135.044C50.5238 135.52 50.5746 136.002 50.727 136.458C50.8794 136.914 51.13 137.335 51.4625 137.693C51.795 138.05 52.2021 138.337 52.6575 138.534L65.0859 145.382Z" fill="#190933"/>
<path d="M35.5865 190.37C35.5865 191.278 35.9628 192.149 36.6325 192.791C37.3023 193.433 38.2107 193.794 39.1578 193.794H53.4434C54.3906 193.794 55.299 193.433 55.9687 192.791C56.6385 192.149 57.0148 191.278 57.0148 190.37C57.0148 189.462 56.6385 188.592 55.9687 187.949C55.299 187.307 54.3906 186.946 53.4434 186.946H39.1578C38.2107 186.946 37.3023 187.307 36.6325 187.949C35.9628 188.592 35.5865 189.462 35.5865 190.37Z" fill="#190933"/>
<path d="M54.4436 248.575C55.075 248.586 55.6962 248.42 56.2293 248.095L68.6577 241.247C69.4685 240.79 70.0584 240.045 70.2991 239.173C70.5398 238.301 70.412 237.373 69.9434 236.591C69.4663 235.814 68.6886 235.248 67.7792 235.018C66.8697 234.787 65.9021 234.909 65.0863 235.359L52.658 242.206C51.9876 242.588 51.4657 243.168 51.172 243.861C50.8783 244.553 50.8288 245.318 51.0311 246.04C51.2335 246.761 51.6765 247.4 52.2927 247.857C52.9088 248.315 53.6642 248.567 54.4436 248.575Z" fill="#190933"/>
<path d="M207.512 93.7512L200.37 105.666C199.901 106.448 199.773 107.376 200.014 108.248C200.255 109.119 200.844 109.865 201.655 110.322C202.202 110.616 202.814 110.781 203.441 110.802C204.064 110.798 204.675 110.638 205.214 110.338C205.753 110.037 206.201 109.607 206.512 109.09L213.655 97.1748C213.949 96.7876 214.155 96.3453 214.259 95.8769C214.364 95.4081 214.364 94.924 214.262 94.4552C214.158 93.9864 213.954 93.5438 213.661 93.1554C213.368 92.767 212.994 92.4421 212.562 92.2013C212.13 91.9605 211.65 91.8093 211.153 91.7574C210.656 91.7056 210.154 91.7542 209.678 91.9006C209.202 92.0465 208.763 92.2865 208.39 92.6054C208.017 92.9242 207.718 93.3146 207.512 93.7512Z" fill="#190933"/>
<path d="M236.941 144.149C237.253 144.667 237.7 145.097 238.239 145.397C238.778 145.698 239.389 145.857 240.012 145.861C240.645 145.881 241.269 145.714 241.798 145.382L254.226 138.534C254.682 138.337 255.089 138.05 255.421 137.693C255.754 137.335 256.004 136.914 256.157 136.458C256.309 136.002 256.36 135.52 256.306 135.044C256.252 134.567 256.094 134.108 255.843 133.693C255.592 133.279 255.253 132.92 254.848 132.64C254.443 132.359 253.981 132.163 253.492 132.064C253.003 131.965 252.498 131.966 252.009 132.066C251.52 132.166 251.059 132.363 250.655 132.645L238.226 139.493C237.416 139.95 236.826 140.696 236.585 141.568C236.345 142.439 236.472 143.367 236.941 144.149Z" fill="#190933"/>
<path d="M271.298 190.37C271.298 189.463 270.921 188.592 270.252 187.95C269.582 187.308 268.673 186.947 267.726 186.947H253.441C252.493 186.947 251.585 187.308 250.915 187.95C250.245 188.592 249.869 189.463 249.869 190.37C249.869 191.278 250.245 192.149 250.915 192.791C251.585 193.433 252.493 193.794 253.441 193.794H267.726C268.673 193.794 269.582 193.433 270.252 192.791C270.921 192.149 271.298 191.278 271.298 190.37Z" fill="#190933"/>
<path d="M250.655 248.095C251.188 248.42 251.809 248.587 252.441 248.575C253.22 248.567 253.975 248.315 254.592 247.857C255.208 247.4 255.651 246.761 255.853 246.04C256.056 245.318 256.006 244.553 255.713 243.861C255.419 243.169 254.897 242.588 254.226 242.206L241.798 235.359C241.397 235.127 240.951 234.975 240.487 234.912C240.023 234.848 239.55 234.875 239.098 234.99C238.645 235.105 238.22 235.306 237.85 235.581C237.479 235.856 237.17 236.2 236.941 236.591C236.472 237.373 236.345 238.301 236.585 239.173C236.826 240.045 237.416 240.79 238.226 241.248L250.655 248.095Z" fill="#190933"/>
<path d="M139.156 382.103H146.299V384.088C146.299 385.904 147.052 387.646 148.391 388.93C149.731 390.215 151.547 390.936 153.442 390.936C155.336 390.936 157.153 390.215 158.493 388.93C159.832 387.646 160.585 385.904 160.585 384.088V382.103H167.727C173.41 382.103 178.861 379.938 182.879 376.086C186.898 372.233 189.156 367.008 189.156 361.56V353.48C193.323 352.067 196.934 349.453 199.491 345.996C202.049 342.539 203.429 338.408 203.441 334.169V293.084C203.399 282.968 204.574 272.881 206.941 263.023C223.044 252.119 235.109 236.584 241.389 218.668C247.669 200.752 247.838 181.385 241.871 163.371C235.904 145.357 224.111 129.631 208.2 118.47C192.289 107.31 173.086 101.294 153.37 101.294C133.655 101.294 114.451 107.31 98.5402 118.47C82.6293 129.631 70.8363 145.357 64.8694 163.371C58.9025 181.385 59.0712 200.752 65.3511 218.668C71.6311 236.584 83.6963 252.119 99.7996 263.023C102.215 272.876 103.437 282.963 103.442 293.084V334.169C103.455 338.408 104.834 342.539 107.392 345.996C109.949 349.453 113.56 352.067 117.728 353.48V361.56C117.728 367.008 119.985 372.233 124.004 376.086C128.023 379.938 133.473 382.103 139.156 382.103ZM189.156 330.472C163.868 327.497 139.525 319.423 117.728 306.779V293.084C117.728 291.167 117.728 289.318 117.728 287.401C139.627 299.626 163.962 307.302 189.156 309.929V330.472ZM117.728 314.859C139.37 326.96 163.404 334.609 188.298 337.32C187.701 338.426 186.799 339.354 185.692 340.006C184.584 340.657 183.312 341.007 182.013 341.017H124.871C122.976 341.017 121.16 340.296 119.82 339.011C118.481 337.727 117.728 335.986 117.728 334.169V314.859ZM174.87 361.56C174.87 363.376 174.117 365.118 172.778 366.402C171.438 367.686 169.622 368.407 167.727 368.407H139.156C137.262 368.407 135.445 367.686 134.105 366.402C132.766 365.118 132.013 363.376 132.013 361.56V354.712H174.87V361.56ZM74.8714 190.37C74.8844 177.322 78.4329 164.5 85.1696 153.161C91.9063 141.823 101.6 132.357 113.301 125.691C125.002 119.024 138.309 115.386 151.917 115.133C165.526 114.88 178.97 118.02 190.931 124.246C202.893 130.472 212.963 139.571 220.153 150.65C227.344 161.729 231.409 174.409 231.95 187.448C232.491 200.486 229.49 213.436 223.24 225.027C216.99 236.619 207.706 246.456 196.298 253.573C193.427 255.384 190.419 256.986 187.298 258.367H186.584C176.248 262.802 165.051 265.094 153.727 265.094C142.403 265.094 131.207 262.802 120.871 258.367H120.156C117.036 256.986 114.028 255.384 111.157 253.573C100.076 246.79 90.9471 237.45 84.6076 226.407C78.2681 215.365 74.9205 202.975 74.8714 190.37ZM124.871 275.006H125.299C143.645 280.668 163.381 280.668 181.727 275.006H182.155C184.941 274.116 187.655 273.158 190.298 272.062H190.727C189.692 279.026 189.167 286.05 189.156 293.084V303.081C163.623 300.195 139.028 292.118 117.014 279.389C117.014 276.924 116.585 274.527 116.228 272.13H116.657C119.299 273.158 122.014 274.116 124.871 275.006Z" fill="#190933"/>
<path d="M153.442 404.631C151.547 404.631 149.731 405.352 148.391 406.637C147.052 407.921 146.299 409.663 146.299 411.479V438.867C146.299 440.685 147.052 442.426 148.391 443.712C149.731 444.995 151.547 445.719 153.442 445.719C155.336 445.719 157.153 444.995 158.493 443.712C159.832 442.426 160.585 440.685 160.585 438.867V411.479C160.585 409.663 159.832 407.921 158.493 406.637C157.153 405.352 155.336 404.631 153.442 404.631Z" fill="#190933"/>
<path d="M311.583 450.579H283.011C281.117 450.579 279.3 451.299 277.961 452.586C276.621 453.868 275.869 455.609 275.869 457.427C275.869 459.244 276.621 460.985 277.961 462.267C279.3 463.554 281.117 464.274 283.011 464.274H311.583C313.477 464.274 315.294 463.554 316.633 462.267C317.973 460.985 318.725 459.244 318.725 457.427C318.725 455.609 317.973 453.868 316.633 452.586C315.294 451.299 313.477 450.579 311.583 450.579Z" fill="#190933"/>
<path d="M218.727 457.427C218.727 459.244 219.479 460.985 220.819 462.267C222.158 463.554 223.975 464.274 225.869 464.274H254.44C256.335 464.274 258.152 463.554 259.491 462.267C260.831 460.985 261.583 459.244 261.583 457.427C261.583 455.609 260.831 453.868 259.491 452.586C258.152 451.299 256.335 450.579 254.44 450.579H225.869C223.975 450.579 222.158 451.299 220.819 452.586C219.479 453.868 218.727 455.609 218.727 457.427Z" fill="#190933"/>
<path d="M410.581 430.034C408.687 430.034 406.87 430.758 405.53 432.04C404.191 433.327 403.438 435.068 403.438 436.881V443.732C403.443 445.465 402.759 447.138 401.526 448.412C400.293 449.683 398.602 450.459 396.795 450.579C394.901 450.644 393.11 451.424 391.818 452.755C390.525 454.081 389.836 455.85 389.903 457.664C389.969 459.481 390.785 461.198 392.171 462.436C393.558 463.679 395.401 464.338 397.296 464.274H397.795C403.214 463.908 408.287 461.584 411.987 457.772C415.686 453.957 417.737 448.939 417.724 443.732V436.881C417.724 435.068 416.971 433.327 415.632 432.04C414.292 430.758 412.475 430.034 410.581 430.034Z" fill="#190933"/>
<path d="M197.298 450.579H168.727C166.833 450.579 165.016 451.299 163.677 452.586C162.337 453.868 161.585 455.609 161.585 457.427C161.585 459.244 162.337 460.985 163.677 462.267C165.016 463.554 166.833 464.274 168.727 464.274H197.298C199.193 464.274 201.01 463.554 202.349 462.267C203.689 460.985 204.441 459.244 204.441 457.427C204.441 455.609 203.689 453.868 202.349 452.586C201.01 451.299 199.193 450.579 197.298 450.579Z" fill="#190933"/>
<path d="M368.725 464.274C370.619 464.274 372.436 463.554 373.775 462.267C375.115 460.985 375.867 459.244 375.867 457.427C375.867 455.609 375.115 453.868 373.775 452.586C372.436 451.299 370.619 450.579 368.725 450.579H340.154C338.259 450.579 336.442 451.299 335.103 452.586C333.763 453.868 333.011 455.609 333.011 457.427C333.011 459.244 333.763 460.985 335.103 462.267C336.442 463.554 338.259 464.274 340.154 464.274H368.725Z" fill="#190933"/>
<path d="M231.012 32.8767C231.012 31.0607 230.26 29.319 228.92 28.0348C227.581 26.7506 225.764 26.0292 223.87 26.0292H195.299C193.404 26.0292 191.588 26.7506 190.248 28.0348C188.908 29.319 188.156 31.0607 188.156 32.8767C188.156 34.6928 188.908 36.4346 190.248 37.7187C191.588 39.0029 193.404 39.7243 195.299 39.7243H223.87C225.764 39.7243 227.581 39.0029 228.92 37.7187C230.26 36.4346 231.012 34.6928 231.012 32.8767Z" fill="#190933"/>
<path d="M345.297 32.8767C345.297 31.0607 344.544 29.319 343.205 28.0348C341.865 26.7506 340.048 26.0292 338.154 26.0292H309.583C307.689 26.0292 305.872 26.7506 304.532 28.0348C303.193 29.319 302.44 31.0607 302.44 32.8767C302.44 34.6928 303.193 36.4346 304.532 37.7187C305.872 39.0029 307.689 39.7243 309.583 39.7243H338.154C340.048 39.7243 341.865 39.0029 343.205 37.7187C344.544 36.4346 345.297 34.6928 345.297 32.8767Z" fill="#190933"/>
<path d="M288.154 32.8767C288.154 31.0607 287.402 29.319 286.062 28.0348C284.723 26.7506 282.906 26.0292 281.012 26.0292H252.441C250.546 26.0292 248.73 26.7506 247.39 28.0348C246.05 29.319 245.298 31.0607 245.298 32.8767C245.298 34.6928 246.05 36.4346 247.39 37.7187C248.73 39.0029 250.546 39.7243 252.441 39.7243H281.012C282.906 39.7243 284.723 39.0029 286.062 37.7187C287.402 36.4346 288.154 34.6928 288.154 32.8767Z" fill="#190933"/>
<path d="M403.438 51.4331V78.8234C403.438 80.6395 404.191 82.3813 405.53 83.6654C406.87 84.9496 408.687 85.6709 410.581 85.6709C412.475 85.6709 414.292 84.9496 415.632 83.6654C416.971 82.3813 417.724 80.6395 417.724 78.8234V51.4331C417.724 49.6171 416.971 47.8753 415.632 46.5912C414.292 45.307 412.475 44.5856 410.581 44.5856C408.687 44.5856 406.87 45.307 405.53 46.5912C404.191 47.8753 403.438 49.6171 403.438 51.4331Z" fill="#190933"/>
<path d="M366.725 26.0292C364.83 26.0292 363.014 26.7506 361.674 28.0348C360.335 29.319 359.582 31.0607 359.582 32.8767C359.582 34.6928 360.335 36.4346 361.674 37.7187C363.014 39.0029 364.83 39.7243 366.725 39.7243H395.296C397.19 39.7243 399.007 39.0029 400.347 37.7187C401.686 36.4346 402.439 34.6928 402.439 32.8767C402.439 31.0607 401.686 29.319 400.347 28.0348C399.007 26.7506 397.19 26.0292 395.296 26.0292H366.725Z" fill="#190933"/>
<path d="M160.585 53.4187V46.5711C160.58 44.8351 161.264 43.1623 162.497 41.8911C163.73 40.6198 165.421 39.8451 167.228 39.7236C169.098 39.5833 170.835 38.7434 172.065 37.3853C173.294 36.0272 173.917 34.2599 173.799 32.4652C173.744 31.5654 173.505 30.6848 173.095 29.8739C172.684 29.0629 172.111 28.3377 171.407 27.7397C170.704 27.1417 169.884 26.6827 168.995 26.389C168.107 26.0954 167.166 25.9728 166.227 26.0284C160.809 26.393 155.736 28.7172 152.036 32.5309C148.337 36.3446 146.286 41.3631 146.299 46.5711V53.4187C146.299 55.2348 147.052 56.9765 148.391 58.2607C149.731 59.5449 151.548 60.2663 153.442 60.2663C155.336 60.2663 157.153 59.5449 158.493 58.2607C159.832 56.9765 160.585 55.2348 160.585 53.4187Z" fill="#190933"/>
<path d="M367.725 358.136C369.843 358.136 371.915 357.534 373.677 356.405C375.439 355.276 376.812 353.672 377.623 351.795C378.434 349.919 378.646 347.853 378.233 345.861C377.819 343.868 376.799 342.038 375.301 340.602C373.802 339.166 371.893 338.187 369.815 337.791C367.736 337.395 365.582 337.598 363.624 338.376C361.667 339.153 359.993 340.469 358.816 342.159C357.639 343.848 357.01 345.833 357.01 347.865C357.01 350.589 358.139 353.201 360.148 355.128C362.158 357.054 364.883 358.136 367.725 358.136ZM367.725 344.441C368.431 344.441 369.121 344.642 369.709 345.018C370.296 345.394 370.754 345.929 371.024 346.555C371.295 347.18 371.365 347.869 371.227 348.533C371.089 349.197 370.749 349.807 370.25 350.286C369.75 350.765 369.114 351.091 368.421 351.223C367.728 351.355 367.01 351.287 366.358 351.028C365.705 350.769 365.148 350.33 364.755 349.767C364.363 349.204 364.153 348.542 364.153 347.865C364.153 346.957 364.529 346.086 365.199 345.444C365.869 344.802 366.777 344.441 367.725 344.441Z" fill="#190933"/>
<path d="M403.438 358.136H453.436C456.28 358.136 459.006 357.054 461.014 355.128C463.023 353.201 464.152 350.589 464.152 347.865C464.152 345.141 463.023 342.528 461.014 340.602C459.006 338.675 456.28 337.594 453.436 337.594H403.438C400.597 337.594 397.872 338.675 395.863 340.602C393.853 342.528 392.724 345.141 392.724 347.865C392.724 350.589 393.853 353.201 395.863 355.128C397.872 357.054 400.597 358.136 403.438 358.136ZM403.438 344.441H453.436C454.384 344.441 455.294 344.802 455.965 345.444C456.632 346.086 457.009 346.957 457.009 347.865C457.009 348.773 456.632 349.644 455.965 350.286C455.294 350.928 454.384 351.288 453.436 351.288H403.438C402.491 351.288 401.583 350.928 400.913 350.286C400.243 349.644 399.867 348.773 399.867 347.865C399.867 346.957 400.243 346.086 400.913 345.444C401.583 344.802 402.491 344.441 403.438 344.441Z" fill="#190933"/>
<path d="M448.295 241.727H415.724C411.524 241.745 407.502 243.353 404.532 246.2C401.562 249.047 399.886 252.903 399.867 256.929V260.763C399.886 264.79 401.562 268.646 404.532 271.493C407.502 274.34 411.524 275.947 415.724 275.965H435.438C437.172 275.958 438.867 276.46 440.295 277.403L458.582 289.113C459.186 289.458 459.874 289.647 460.583 289.66C461.178 289.655 461.765 289.514 462.294 289.249C462.851 288.948 463.321 288.511 463.644 287.982C463.971 287.453 464.147 286.851 464.152 286.237V256.929C464.135 252.903 462.457 249.047 459.488 246.2C456.519 243.353 452.497 241.745 448.295 241.727ZM457.009 279.868L444.223 271.651C441.619 269.995 438.563 269.114 435.438 269.117H415.724C413.413 269.117 411.196 268.237 409.562 266.671C407.928 265.104 407.01 262.979 407.01 260.763V256.929C407.01 254.713 407.928 252.588 409.562 251.021C411.196 249.455 413.413 248.575 415.724 248.575H448.295C450.606 248.575 452.824 249.455 454.455 251.021C456.091 252.588 457.009 254.713 457.009 256.929V279.868Z" fill="#190933"/>
<path d="M421.295 199.135V195.301C421.276 191.275 419.6 187.419 416.63 184.572C413.661 181.725 409.638 180.117 405.438 180.099H372.867C368.667 180.117 364.645 181.725 361.675 184.572C358.706 187.419 357.029 191.275 357.01 195.301V224.608C357.016 225.223 357.191 225.825 357.517 226.354C357.843 226.883 358.309 227.32 358.868 227.621C359.397 227.886 359.984 228.027 360.582 228.032C361.287 228.019 361.976 227.83 362.582 227.484L380.867 215.775C382.295 214.832 383.99 214.33 385.725 214.337H405.438C409.638 214.319 413.661 212.712 416.63 209.865C419.6 207.018 421.276 203.162 421.295 199.135ZM376.939 210.023L364.153 218.24V195.301C364.153 193.085 365.071 190.96 366.706 189.394C368.34 187.827 370.556 186.947 372.867 186.947H405.438C407.749 186.947 409.966 187.827 411.6 189.394C413.234 190.96 414.153 193.085 414.153 195.301V199.135C414.153 201.351 413.234 203.476 411.6 205.043C409.966 206.609 407.749 207.489 405.438 207.489H385.725C382.599 207.486 379.543 208.367 376.939 210.023Z" fill="#190933"/>
</svg>
