<svg width="489" height="512" viewBox="0 0 489 512" fill="none" xmlns="http://www.w3.org/2000/svg">
<path d="M441.601 95.6988C399.518 37.4138 324.619 -0.701446 250.429 0.0366966C176.239 0.774839 102.758 40.3663 68.1543 98.642C33.1937 156.918 36.7531 233.877 39.5993 307.848C42.4455 381.819 44.5787 452.428 79.5304 484.935C114.482 517.441 181.896 511.472 248.595 510.359C315.295 509.247 380.924 513.364 423.016 480.867C464.751 448.37 482.948 379.632 487.593 306.035C492.237 232.439 483.327 153.984 441.601 95.6988Z" fill="#98E2F5"/>
<path d="M238.019 439.787H184.273V454.513H238.019V439.787Z" fill="black"/>
<path d="M385.821 101.089H345.512V64.2739C345.512 43.974 330.443 27.4588 311.92 27.4588H110.372C91.8497 27.4588 76.7804 43.974 76.7804 64.2739V248.349H36.4707C17.9484 248.349 2.87927 264.865 2.87927 285.164V438.352L65.2718 395.609H76.7804V447.15C76.7804 467.451 91.8497 483.965 110.372 483.965H311.92C330.443 483.965 345.512 467.451 345.512 447.15V248.349H357.02L419.413 291.092V137.904C419.413 117.604 404.345 101.089 385.821 101.089ZM110.372 42.1848H311.92C323.032 42.1848 332.075 52.0954 332.075 64.2739V71.6369H90.2169V64.2739C90.2169 52.0954 99.2597 42.1848 110.372 42.1848ZM61.4158 380.883L16.3158 411.771V285.164C16.3158 272.986 25.3586 263.075 36.4707 263.075H184.273C195.385 263.075 204.428 272.986 204.428 285.164V358.794C204.428 370.973 195.385 380.883 184.273 380.883H61.4158ZM311.92 469.239H110.372C99.2597 469.239 90.2169 459.331 90.2169 447.15V425.061H332.075V447.15C332.075 459.331 323.032 469.239 311.92 469.239ZM332.075 410.335H90.2169V395.609H184.273C202.795 395.609 217.864 379.094 217.864 358.794V285.164C217.864 264.865 202.795 248.349 184.273 248.349H90.2169V86.3629H332.075V101.089H238.019C219.497 101.089 204.428 117.604 204.428 137.904V211.534C204.428 231.834 219.497 248.349 238.019 248.349H332.075V410.335ZM405.976 264.511L360.876 233.623H345.512H332.075H238.019C226.907 233.623 217.864 223.712 217.864 211.534V137.904C217.864 125.726 226.907 115.815 238.019 115.815H385.821C396.935 115.815 405.976 125.726 405.976 137.904V264.511Z" fill="black"/>
<path d="M311.92 152.63C300.808 152.63 291.765 162.541 291.765 174.719C291.765 186.897 300.808 196.808 311.92 196.808C323.032 196.808 332.075 186.897 332.075 174.719C332.075 162.541 323.032 152.63 311.92 152.63ZM311.92 182.082C308.218 182.082 305.202 178.776 305.202 174.719C305.202 170.662 308.218 167.356 311.92 167.356C315.622 167.356 318.639 170.662 318.639 174.719C318.639 178.776 315.622 182.082 311.92 182.082Z" fill="black"/>
<path d="M365.666 152.63C354.554 152.63 345.512 162.541 345.512 174.719C345.512 186.897 354.554 196.808 365.666 196.808C376.778 196.808 385.821 186.897 385.821 174.719C385.821 162.541 376.778 152.63 365.666 152.63ZM365.666 182.082C361.964 182.082 358.948 178.776 358.948 174.719C358.948 170.662 361.964 167.356 365.666 167.356C369.368 167.356 372.385 170.662 372.385 174.719C372.385 178.776 369.368 182.082 365.666 182.082Z" fill="black"/>
<path d="M258.174 152.63C247.062 152.63 238.019 162.541 238.019 174.719C238.019 186.897 247.062 196.808 258.174 196.808C269.286 196.808 278.329 186.897 278.329 174.719C278.329 162.541 269.286 152.63 258.174 152.63ZM258.174 182.082C254.472 182.082 251.456 178.776 251.456 174.719C251.456 170.662 254.472 167.356 258.174 167.356C261.876 167.356 264.892 170.662 264.892 174.719C264.892 178.776 261.876 182.082 258.174 182.082Z" fill="black"/>
<path d="M150.681 323.334V321.979C150.681 297.615 132.603 277.801 110.372 277.801C88.1408 277.801 70.0621 297.615 70.0621 321.979V323.334C62.2623 326.382 56.6255 334.482 56.6255 344.068C56.6255 356.247 65.6683 366.157 76.7803 366.157H96.9352V321.979H83.4986C83.4986 305.736 95.5512 292.527 110.372 292.527C125.192 292.527 137.245 305.736 137.245 321.979H123.808V366.157H143.963C155.075 366.157 164.118 356.247 164.118 344.068C164.118 334.482 158.481 326.382 150.681 323.334ZM83.4986 351.431H76.7803C73.0784 351.431 70.0621 348.133 70.0621 344.068C70.0621 340.004 73.0784 336.705 76.7803 336.705H83.4986V351.431ZM143.963 351.431H137.245V336.705H143.963C147.665 336.705 150.681 340.004 150.681 344.068C150.681 348.133 147.665 351.431 143.963 351.431Z" fill="black"/>
<path d="M244.737 314.616H231.301V329.342H244.737V314.616Z" fill="black"/>
<path d="M271.611 314.616H258.174V329.342H271.611V314.616Z" fill="black"/>
<path d="M298.484 314.616H285.047V329.342H298.484V314.616Z" fill="black"/>
<path d="M137.245 167.356H123.808V182.082H137.245V167.356Z" fill="black"/>
<path d="M164.118 167.356H150.681V182.082H164.118V167.356Z" fill="black"/>
<path d="M190.991 167.356H177.555V182.082H190.991V167.356Z" fill="black"/>
</svg>
