<svg width="1270" height="1360" viewBox="0 0 1270 1360" fill="none" xmlns="http://www.w3.org/2000/svg">
<path d="M1029.54 119.814C1136.06 206.698 1212.78 330.82 1247.79 464.25C1282.8 597.68 1276.84 740.42 1226.93 858.335C1177.03 975.474 1083.17 1068.56 979.637 1162.43C876.1 1256.3 762.135 1350.94 642.956 1359.47C523.032 1367.23 398.639 1288.1 295.847 1194.24C193.055 1099.6 111.864 990.213 58.2336 861.438C3.85812 732.662 -22.9572 584.492 24.7145 470.456C72.3861 356.42 194.545 276.517 310.744 192.735C426.944 109.729 537.929 22.8439 661.578 4.22577C785.226 -15.1682 922.282 33.7046 1029.54 119.814Z" fill="white"/>
</svg>
