<svg width="1270" height="1360" viewBox="0 0 1270 1360" fill="none" xmlns="http://www.w3.org/2000/svg">
<path d="M1017.32 96.0052C1124.87 176.204 1200.75 320.039 1239.79 474.335C1278.83 628.631 1281.04 795.131 1240.52 945.069C1200.75 1095.01 1117.51 1230.12 1009.22 1298.12C900.198 1366.11 766.866 1367.86 643.111 1351.29C519.356 1334.73 405.914 1299.86 310.151 1226.64C215.125 1153.41 137.041 1042.7 78.8467 905.841C20.6523 768.98 -18.3895 606.838 8.86611 459.516C36.1217 311.322 129.675 177.948 245.327 100.364C360.242 22.78 496.52 1.85852 634.271 0.115067C771.286 -1.62839 909.774 15.8062 1017.32 96.0052Z" fill="white"/>
</svg>
