<svg width="209" height="38" viewBox="0 0 209 38" fill="none" xmlns="http://www.w3.org/2000/svg">
<path fill-rule="evenodd" clip-rule="evenodd" d="M76.9858 28.4551C75.847 28.4551 74.7844 28.5967 73.8033 29.3775C73.334 29.7505 72.657 29.8864 72.0549 29.9808C69.4649 30.3804 66.8557 30.6417 64.2787 31.1208C62.7694 31.4017 61.1963 31.578 59.8623 32.6005C59.6132 32.7905 59.0994 32.8124 58.816 32.6651C57.7978 32.1378 56.9951 32.6294 56.196 33.1798C55.283 33.8086 54.345 34.2321 53.225 34.2254C52.6061 34.2219 52.0291 34.383 51.5172 34.6803C44.5176 34.435 37.2921 34.7504 30.6416 37.05C29.0097 37.2055 27.3809 37.4206 25.757 37.7121C25.675 37.6729 25.5888 37.6153 25.5073 37.582C25.5161 37.0637 25.0181 36.5513 24.5024 36.6665C22.7484 37.0547 20.9538 37.1687 19.1636 37.2032C19.1316 36.9822 19.0834 36.7507 18.9814 36.4882C18.8819 36.2347 18.5291 36.0138 18.2794 36.0494C17.5354 36.1552 16.023 36.594 15.966 36.829C16.056 36.4651 15.8846 35.7972 15.8458 35.5253C15.8019 35.219 15.5273 34.9957 15.2783 34.9094C14.3947 34.6066 13.5055 34.321 12.617 34.0366C13.0719 33.8972 13.5299 33.7729 14.0049 33.7095C14.5737 33.6335 15.0399 33.0083 14.6951 32.3921C12.1727 27.8782 8.24422 25.3264 4.55356 22.1747C5.54725 21.8834 6.52967 21.546 7.57592 21.4205C8.2824 21.3364 8.61404 20.535 8.14223 19.9258C7.09723 18.5762 6.32067 17.024 5.41584 15.5696H7.03967C7.88506 15.5696 8.06402 14.4112 7.44202 13.9345C5.18744 12.2014 2.7658 10.7713 0.377319 9.27661C0.884801 8.81368 1.40167 8.41758 1.93857 8.05713C2.2214 8.23907 2.59185 8.27593 2.9116 8.00072C3.25326 7.70709 3.56301 7.38237 3.85773 7.03923C4.09177 6.94479 4.31766 6.84344 4.56796 6.76168C5.08857 6.58782 5.21123 6.04085 5.07419 5.60558C5.43649 5.1841 5.7988 4.76268 6.15235 4.33085C8.9119 4.33892 11.6596 3.7954 14.4154 3.72285C15.971 3.68368 17.5228 3.51213 19.0759 3.40272C19.2005 3.39465 19.3312 3.41078 19.4482 3.37509C21.3117 2.80278 23.0795 2.22358 25.1595 2.5794C27.0642 2.90758 29.1098 2.28806 31.0915 2.07273C33.0727 1.85624 35.0519 1.61096 37.0356 1.40369C37.5918 1.34496 38.1568 1.34382 38.7157 1.37261C41.9658 1.53727 45.1853 1.37491 48.3384 0.392667C48.7539 0.262546 49.227 0.0806007 49.6188 0.178481C53.6247 1.18606 57.6802 0.480175 61.7063 0.565386C66.494 0.669024 71.289 0.329339 76.081 0.22455C77.5115 0.194611 78.9432 0.347751 80.3748 0.359268C85.2282 0.396113 90.0809 0.383451 94.9336 0.436417C97.673 0.46751 100.41 0.595321 103.15 0.671321C107.694 0.800293 112.237 0.933875 116.782 1.04442C120.452 1.13309 124.125 1.19871 127.796 1.24708C128.666 1.25975 129.54 1.19527 130.408 1.11236C131.666 0.992608 132.88 1.01333 134.054 1.66278C134.462 1.88733 135.073 2.01399 135.473 1.84818C137.717 0.923507 139.949 1.07435 142.219 1.65932C142.818 1.81363 143.456 1.81594 144.078 1.83206C146.749 1.90576 149.463 1.65703 152.081 2.10037C155.124 2.61394 158.158 2.58746 161.2 2.75098C162.313 2.81086 163.436 2.68994 164.55 2.76825C167.958 3.01351 171.364 3.3083 174.771 3.60885C174.991 3.62496 175.195 3.84375 175.496 4.02223C175.301 4.56113 175.128 5.0402 174.928 5.59175C175.151 5.76103 175.335 6.01551 175.541 6.04085C177.026 6.22165 178.514 6.3483 179.999 6.50606C181.113 6.62582 182.232 6.7283 183.338 6.91368C183.929 7.01272 184.67 7.07951 184.661 8.02837C184.651 8.8943 184.382 9.67503 183.552 9.96523C183.09 10.1276 182.576 10.1022 182.087 10.1782C181.448 10.2761 180.808 10.3901 180.167 10.4972C180.177 10.6561 180.185 10.8162 180.192 10.9751C181.153 11.0511 182.111 11.1398 183.07 11.2019C184.143 11.2699 185.108 11.5428 186.052 12.2061C186.684 12.6505 187.562 12.7219 188.346 12.8405C189.19 12.9672 190.087 12.8175 190.85 13.6996C190.09 14.6726 189.111 14.3283 188.264 14.3202C186.336 14.3007 184.413 14.1153 182.485 14.0934C177.697 14.0404 172.905 14.0727 168.116 14.0024C166.311 13.9771 164.511 13.6547 162.71 13.6673C159.852 13.6858 156.996 13.9126 154.14 13.9736C151.464 14.0289 148.786 13.9805 146.112 13.9886C145.624 13.9909 145.136 14.0496 144.61 14.4389C145.662 14.5701 146.714 14.7912 147.77 14.8212C152.562 14.9524 157.357 14.9985 162.148 15.1493C163.315 15.1873 164.472 15.6572 165.637 15.6675C170.99 15.7216 176.343 15.6364 181.694 15.6963C185.617 15.7412 189.536 15.9209 193.458 16.0717C194.044 16.0947 194.623 16.2882 195.554 16.4701C193.989 17.9429 192.296 16.2813 191.038 17.6113C191.419 18.8526 192.495 19.0783 193.447 19.3996C196.198 20.3219 199.035 20.7112 201.892 21.0129C203.995 21.2351 206.08 21.6197 208.172 21.9525C208.332 21.9778 208.474 22.1529 208.914 22.4614C208.276 22.5593 207.904 22.6825 207.535 22.6584C202.936 22.3601 198.341 21.8857 193.735 21.7648C188.465 21.6278 183.185 21.7498 177.91 21.8592C174.618 21.9283 171.325 22.1701 168.036 22.359C167.417 22.3947 166.807 22.5674 166.188 22.6307C165.205 22.7321 164.221 22.7988 163.235 22.8656C162.989 22.8829 162.735 22.8092 162.491 22.8414C156.418 23.6406 150.315 23.2859 144.227 23.4299C141.748 23.4897 139.267 23.4402 136.785 23.4402C136.776 23.5888 136.766 23.7385 136.757 23.8859C137.278 23.9791 137.799 24.1358 138.322 24.1542C143.987 24.3315 149.65 24.6148 155.313 24.6136C160.1 24.6102 164.885 24.2601 169.672 24.0885C170.695 24.0505 171.759 23.8617 172.757 24.8601C171.946 25.0213 171.14 25.2688 170.323 25.3299C166.539 25.6039 162.752 25.87 158.963 26.0565C154.918 26.2557 150.87 26.4158 146.824 26.4918C144.086 26.5436 141.34 26.3098 138.605 26.3996C132.629 26.5965 126.66 26.9903 120.684 27.1711C114.401 27.3588 108.109 27.4959 101.822 27.4636C94.3992 27.4245 86.9984 27.7953 79.6008 28.3572C78.7317 28.424 77.8568 28.4551 76.9858 28.4551Z" fill="#CEF6FF"/>
</svg>
