<svg width="1270" height="1360" viewBox="0 0 1270 1360" fill="none" xmlns="http://www.w3.org/2000/svg">
<path d="M988.606 157.579C1112.99 242.512 1233.43 344.098 1262.56 469.832C1291.68 595.565 1230.28 745.446 1165.73 875.344C1101.18 1005.24 1034.26 1115.99 940.586 1195.92C846.907 1275.86 726.463 1325.82 591.062 1348.3C455.661 1370.78 305.303 1365.79 202.178 1289.18C99.8396 1211.74 45.5217 1062.7 18.7564 917.81C-8.00898 772.925 -7.22179 632.203 28.2029 498.975C63.6276 365.747 133.69 240.846 236.028 148.42C338.366 55.993 472.193 -3.95951 603.658 0.203857C735.123 4.36722 864.226 72.6464 988.606 157.579Z" fill="white"/>
</svg>
