<svg width="489" height="512" viewBox="0 0 489 512" fill="none" xmlns="http://www.w3.org/2000/svg">
<path d="M405.124 455.076C455.378 407.23 487.776 322.624 486.405 239.141C485.035 155.658 449.896 73.2991 398.897 34.8461C347.894 -4.0082 281.028 0.642014 216.753 4.46471C152.477 8.2874 91.118 11.2795 63.2033 50.8844C35.2886 90.4893 41.1398 166.303 42.7622 241.353C44.3845 316.404 41.4498 390.293 70.1131 437.389C98.7729 484.082 158.706 503.985 222.729 508.595C286.753 513.204 354.866 502.521 405.124 455.076Z" fill="#CEF6FF"/>
<g clip-path="url(#clip0)">
<path d="M403.558 58.601H385.236L387.769 57.0025C388.618 56.4646 389.316 55.6997 389.793 54.7857C390.269 53.8718 390.505 52.8416 390.476 51.8005C390.45 50.7594 390.158 49.7446 389.634 48.8598C389.113 47.975 388.375 47.2519 387.496 46.7643L367.709 35.7514C366.9 35.301 365.999 35.0653 365.084 35.0649H59.7446C55.2842 35.0649 51.007 36.9247 47.8533 40.2351C44.6993 43.5455 42.9277 48.0354 42.9277 52.717C42.92 54.7197 43.2356 56.7092 43.8619 58.601H29.8478C22.4142 58.601 15.2851 61.7006 10.0288 67.218C4.77253 72.7353 1.81958 80.2185 1.81958 88.0211V119.344C1.81958 120.904 2.41017 122.401 3.46143 123.504C4.51269 124.608 5.9385 125.228 7.4252 125.228C8.91193 125.228 10.3377 124.608 11.389 123.504C12.4402 122.401 13.0308 120.904 13.0308 119.344V88.0211C13.0308 83.3396 14.8026 78.8496 17.9564 75.5393C21.1102 72.2287 25.3877 70.369 29.8478 70.369H403.558C408.018 70.369 412.294 72.2287 415.447 75.5393C418.6 78.8496 420.373 83.3396 420.373 88.0211V441.061C420.373 445.743 418.6 450.235 415.447 453.545C412.294 456.855 408.018 458.715 403.558 458.715H29.8478C25.3877 458.715 21.1102 456.855 17.9564 453.545C14.8026 450.235 13.0308 445.743 13.0308 441.061C13.0308 414.299 13.0308 370.885 13.0308 322.921C13.0308 263.708 13.0869 197.552 13.0869 147.224C13.0869 145.663 12.4963 144.167 11.445 143.064C10.3938 141.96 8.96798 141.34 7.48129 141.34C5.99455 141.34 4.56874 141.96 3.51749 143.064C2.46623 144.167 1.87563 145.663 1.87563 147.224C1.87563 197.552 1.87563 263.698 1.81958 322.911C1.81958 370.885 1.81958 414.299 1.81958 441.061C1.81958 448.863 4.77253 456.347 10.0288 461.866C15.2851 467.381 22.4142 470.482 29.8478 470.482H403.558C407.239 470.482 410.883 469.722 414.284 468.242C417.685 466.765 420.772 464.599 423.375 461.866C425.978 459.134 428.042 455.89 429.452 452.32C430.859 448.751 431.587 444.925 431.587 441.061V88.0211C431.587 80.2185 428.633 72.7353 423.375 67.218C418.12 61.7006 410.99 58.601 403.558 58.601ZM55.7738 56.8652C54.9936 56.0413 54.463 54.9932 54.2492 53.8533C54.0355 52.7133 54.1481 51.5325 54.5727 50.4596C54.9973 49.3866 55.7151 48.4697 56.6356 47.8243C57.5558 47.1789 58.6376 46.834 59.7446 46.833H285.838V58.601H59.7446C59.0065 58.6003 58.2758 58.4466 57.5942 58.1488C56.9129 57.8509 56.2941 57.4147 55.7738 56.8652ZM297.05 58.601V46.833H363.701L373.502 52.2855L363.532 58.601H297.05Z" fill="black"/>
<path d="M377.921 140.977C384.224 140.977 390.269 138.349 394.725 133.67C399.186 128.991 401.689 122.646 401.689 116.029V114.538C401.689 107.922 399.186 101.576 394.725 96.8973C390.269 92.2185 384.224 89.59 377.921 89.59H55.484C49.1804 89.59 43.1349 92.2185 38.6774 96.8973C34.2202 101.576 31.7161 107.922 31.7161 114.538V116.029C31.7161 122.646 34.2202 128.991 38.6774 133.67C43.1349 138.349 49.1804 140.977 55.484 140.977H377.921ZM132.618 129.209V101.358H300.787V129.209H132.618ZM386.794 105.222C387.968 106.442 388.895 107.893 389.526 109.493C390.158 111.092 390.483 112.807 390.475 114.538V116.029C390.479 117.76 390.154 119.475 389.523 121.074C388.891 122.674 387.968 124.127 386.801 125.352C385.635 126.576 384.25 127.547 382.725 128.209C381.204 128.871 379.568 129.21 377.921 129.209H311.998V101.358H377.921C379.568 101.354 381.204 101.693 382.729 102.356C384.25 103.019 385.635 103.993 386.794 105.222ZM42.9274 116.009V114.519C42.9285 112.789 43.2545 111.077 43.8859 109.479C44.5177 107.882 45.443 106.431 46.609 105.209C47.7751 103.987 49.159 103.017 50.6817 102.357C52.2044 101.696 53.8361 101.357 55.484 101.358H121.406V129.209H55.484C52.1546 129.207 48.9622 127.817 46.6079 125.346C44.2537 122.875 42.9299 119.524 42.9274 116.029V116.009Z" fill="black"/>
<path d="M31.7161 417.526C31.7161 425.33 34.669 432.814 39.9255 438.329C45.1815 443.848 52.3108 446.945 59.7443 446.945H373.66C381.093 446.945 388.223 443.848 393.477 438.329C398.735 432.814 401.689 425.33 401.689 417.526V409.367C401.689 407.806 401.098 406.309 400.046 405.206C398.994 404.103 397.568 403.483 396.084 403.483C394.596 403.483 393.171 404.103 392.118 405.206C391.066 406.309 390.475 407.806 390.475 409.367V417.526C390.475 422.206 388.707 426.698 385.55 430.008C382.396 433.317 378.121 435.178 373.66 435.178H59.7443C55.2842 435.178 51.0066 433.317 47.853 430.008C44.699 426.698 42.9274 422.206 42.9274 417.526V182.165C42.9274 177.484 44.699 172.994 47.853 169.683C51.0066 166.373 55.2842 164.513 59.7443 164.513H373.66C378.121 164.513 382.396 166.373 385.55 169.683C388.707 172.994 390.475 177.484 390.475 182.165V370.012C390.475 371.876 390.571 374.818 390.579 374.916C390.605 375.688 390.774 376.448 391.081 377.152C391.387 377.855 391.823 378.489 392.358 379.016C392.898 379.544 393.533 379.954 394.223 380.225C394.91 380.495 395.645 380.621 396.383 380.594C397.118 380.567 397.842 380.388 398.51 380.067C399.182 379.747 399.784 379.291 400.286 378.725C400.792 378.16 401.18 377.496 401.438 376.771C401.696 376.047 401.818 375.277 401.792 374.504C401.792 374.504 401.696 371.641 401.696 369.983V182.165C401.696 174.363 398.746 166.879 393.488 161.362C388.23 155.845 381.104 152.745 373.668 152.745H59.7535C52.32 152.745 45.1911 155.845 39.9347 161.362C34.6784 166.879 31.7254 174.363 31.7254 182.165L31.7161 417.526Z" fill="black"/>
<path d="M89.6411 217.469C95.8328 217.469 100.852 212.2 100.852 205.701C100.852 199.202 95.8328 193.933 89.6411 193.933C83.449 193.933 78.4296 199.202 78.4296 205.701C78.4296 212.2 83.449 217.469 89.6411 217.469Z" fill="black"/>
<path d="M358.712 217.469C364.903 217.469 369.924 212.2 369.924 205.701C369.924 199.202 364.903 193.933 358.712 193.933C352.52 193.933 347.5 199.202 347.5 205.701C347.5 212.2 352.52 217.469 358.712 217.469Z" fill="black"/>
<path d="M89.6411 413.603C95.8328 413.603 100.852 408.335 100.852 401.835C100.852 395.336 95.8328 390.067 89.6411 390.067C83.449 390.067 78.4296 395.336 78.4296 401.835C78.4296 408.335 83.449 413.603 89.6411 413.603Z" fill="black"/>
<path d="M358.712 413.603C364.903 413.603 369.924 408.335 369.924 401.835C369.924 395.336 364.903 390.067 358.712 390.067C352.52 390.067 347.5 395.336 347.5 401.835C347.5 408.335 352.52 413.603 358.712 413.603Z" fill="black"/>
</g>
<defs>
<clipPath id="clip0">
<rect width="432.007" height="437.958" fill="white" transform="translate(0 32.9968)"/>
</clipPath>
</defs>
</svg>
