<svg width="1270" height="1360" viewBox="0 0 1270 1360" fill="none" xmlns="http://www.w3.org/2000/svg">
<path d="M962.556 148.396C1077.65 216.408 1194.24 305.225 1242.08 426.048C1290.66 547.67 1270.48 701.299 1222.65 841.325C1175.56 982.152 1100.07 1108.58 994.694 1203.79C888.565 1299.81 753.289 1363.82 620.255 1359.82C486.473 1356.62 356.429 1283.81 260.763 1185.39C164.351 1086.17 103.813 960.548 58.9701 826.123C14.1271 691.697 -15.0209 547.67 8.14798 408.444C31.3169 268.418 107.55 132.393 218.163 62.7795C328.028 -6.83351 473.02 -10.0341 602.318 12.3701C732.362 33.9741 846.712 80.3828 962.556 148.396Z" fill="white"/>
</svg>
