<svg width="489" height="512" viewBox="0 0 489 512" fill="none" xmlns="http://www.w3.org/2000/svg">
<path d="M94.7214 53.8369C39.1306 100.666 2.28929 184.581 2.22363 268.034C2.15797 351.488 38.868 434.479 93.66 473.905C148.448 513.732 221.315 510.394 291.346 507.833C361.376 505.272 428.218 503.483 459.34 464.452C490.462 425.42 485.508 349.544 485.142 274.512C484.776 199.481 489.349 125.699 459.029 78.0739C428.705 30.8504 363.843 9.7875 294.244 3.92713C224.645 -1.93325 150.308 7.40887 94.7214 53.8369Z" fill="#98E2F5"/>
<path d="M123.5 80.9417C127.09 80.9417 130 77.5837 130 73.4416C130 69.2995 127.09 65.9417 123.5 65.9417C119.91 65.9417 117 69.2995 117 73.4416C117 77.5837 119.91 80.9417 123.5 80.9417Z" fill="#263238"/>
<path d="M94.4998 80.9417C98.0897 80.9417 101 77.5837 101 73.4416C101 69.2995 98.0897 65.9417 94.4998 65.9417C90.9099 65.9417 88 69.2995 88 73.4416C88 77.5837 90.9099 80.9417 94.4998 80.9417Z" fill="#263238"/>
<path d="M63.9999 80.9417C68.4182 80.9417 72 77.5837 72 73.4416C72 69.2995 68.4182 65.9417 63.9999 65.9417C59.5817 65.9417 56 69.2995 56 73.4416C56 77.5837 59.5817 80.9417 63.9999 80.9417Z" fill="#263238"/>
<path d="M404.596 109.942H34.4038C30.3169 109.942 27 106.806 27 102.941C27 99.0777 30.3169 95.9417 34.4038 95.9417H404.596C408.683 95.9417 412 99.0777 412 102.941C412 106.806 408.683 109.942 404.596 109.942Z" fill="#263238"/>
<path d="M389.789 474.942H49.2116C36.9656 474.942 27 465.119 27 453.042V58.8417C27 46.7675 36.9656 36.9417 49.2116 36.9417H389.789C402.035 36.9417 412 46.7675 412 58.8417V175.642C412 179.671 408.683 182.942 404.596 182.942C400.509 182.942 397.193 179.671 397.193 175.642V58.8417C397.193 54.8267 393.861 51.5417 389.789 51.5417H49.2116C45.1394 51.5417 41.8077 54.8267 41.8077 58.8417V453.042C41.8077 457.058 45.1394 460.341 49.2116 460.341H389.789C393.861 460.341 397.193 457.058 397.193 453.042C397.193 449.014 400.509 445.744 404.596 445.744C408.683 445.744 412 449.014 412 453.042C412 465.119 402.035 474.942 389.789 474.942Z" fill="#263238"/>
<path d="M93.7499 327.942H79.2501C75.248 327.942 72 324.806 72 320.942C72 317.078 75.248 313.942 79.2501 313.942H93.7499C97.752 313.942 101 317.078 101 320.942C101 324.806 97.752 327.942 93.7499 327.942Z" fill="#263238"/>
<path d="M93.7499 415.942H79.2501C75.248 415.942 72 412.806 72 408.942C72 405.078 75.248 401.942 79.2501 401.942H93.7499C97.752 401.942 101 405.078 101 408.942C101 412.806 97.752 415.942 93.7499 415.942Z" fill="#263238"/>
<path d="M93.7499 386.942H79.2501C75.248 386.942 72 383.582 72 379.442C72 375.302 75.248 371.942 79.2501 371.942H93.7499C97.752 371.942 101 375.302 101 379.442C101 383.582 97.752 386.942 93.7499 386.942Z" fill="#263238"/>
<path d="M93.7499 357.942H79.2501C75.248 357.942 72 354.582 72 350.442C72 346.302 75.248 342.942 79.2501 342.942H93.7499C97.752 342.942 101 346.302 101 350.442C101 354.582 97.752 357.942 93.7499 357.942Z" fill="#263238"/>
<path d="M227.625 386.942H124.375C120.304 386.942 117 383.582 117 379.442C117 375.302 120.304 371.942 124.375 371.942H227.625C231.696 371.942 235 375.302 235 379.442C235 383.582 231.696 386.942 227.625 386.942Z" fill="#263238"/>
<path d="M153.667 415.942H124.333C120.286 415.942 117 412.806 117 408.942C117 405.078 120.286 401.942 124.333 401.942H153.667C157.715 401.942 161 405.078 161 408.942C161 412.806 157.715 415.942 153.667 415.942Z" fill="#263238"/>
<path d="M257.5 415.942H227.5C223.36 415.942 220 412.806 220 408.942C220 405.078 223.36 401.942 227.5 401.942H257.5C261.64 401.942 265 405.078 265 408.942C265 412.806 261.64 415.942 257.5 415.942Z" fill="#263238"/>
<path d="M212.643 357.942H124.357C120.296 357.942 117 354.582 117 350.442C117 346.302 120.296 342.942 124.357 342.942H212.643C216.704 342.942 220 346.302 220 350.442C220 354.582 216.704 357.942 212.643 357.942Z" fill="#263238"/>
<path d="M198.25 415.942H182.75C178.472 415.942 175 412.806 175 408.942C175 405.078 178.472 401.942 182.75 401.942H198.25C202.528 401.942 206 405.078 206 408.942C206 412.806 202.528 415.942 198.25 415.942Z" fill="#263238"/>
<path d="M93.7499 298.942H79.2501C75.248 298.942 72 295.582 72 291.442C72 287.302 75.248 283.942 79.2501 283.942H93.7499C97.752 283.942 101 287.302 101 291.442C101 295.582 97.752 298.942 93.7499 298.942Z" fill="#263238"/>
<path d="M93.7499 269.942H79.2501C75.248 269.942 72 267.03 72 263.442C72 259.854 75.248 256.942 79.2501 256.942H93.7499C97.752 256.942 101 259.854 101 263.442C101 267.03 97.752 269.942 93.7499 269.942Z" fill="#263238"/>
<path d="M93.7499 241.942H79.2501C75.248 241.942 72 238.806 72 234.942C72 231.078 75.248 227.942 79.2501 227.942H93.7499C97.752 227.942 101 231.078 101 234.942C101 238.806 97.752 241.942 93.7499 241.942Z" fill="#263238"/>
<path d="M153.667 212.942H124.333C120.286 212.942 117 209.582 117 205.442C117 201.302 120.286 197.942 124.333 197.942H153.667C157.715 197.942 161 201.302 161 205.442C161 209.582 157.715 212.942 153.667 212.942Z" fill="#263238"/>
<path d="M272.5 212.942H227.5C223.36 212.942 220 209.582 220 205.442C220 201.302 223.36 197.942 227.5 197.942H272.5C276.64 197.942 280 201.302 280 205.442C280 209.582 276.64 212.942 272.5 212.942Z" fill="#263238"/>
<path d="M362.5 183.942H287.5C283.36 183.942 280 180.582 280 176.442C280 172.302 283.36 168.942 287.5 168.942H362.5C366.64 168.942 370 172.302 370 176.442C370 180.582 366.64 183.942 362.5 183.942Z" fill="#263238"/>
<path d="M221.533 269.942H124.467C120.345 269.942 117 267.03 117 263.442C117 259.854 120.345 256.942 124.467 256.942H221.533C225.655 256.942 229 259.854 229 263.442C229 267.03 225.655 269.942 221.533 269.942Z" fill="#263238"/>
<path d="M183.6 327.942H124.4C120.316 327.942 117 324.806 117 320.942C117 317.078 120.316 313.942 124.4 313.942H183.6C187.685 313.942 191 317.078 191 320.942C191 324.806 187.685 327.942 183.6 327.942Z" fill="#263238"/>
<path d="M257.625 183.942H213.375C209.304 183.942 206 180.582 206 176.442C206 172.302 209.304 168.942 213.375 168.942H257.625C261.696 168.942 265 172.302 265 176.442C265 180.582 261.696 183.942 257.625 183.942Z" fill="#263238"/>
<path d="M153.667 298.942H124.333C120.286 298.942 117 295.582 117 291.442C117 287.302 120.286 283.942 124.333 283.942H153.667C157.715 283.942 161 287.302 161 291.442C161 295.582 157.715 298.942 153.667 298.942Z" fill="#263238"/>
<path d="M213 327.942C209.136 327.942 206 324.806 206 320.942C206 317.078 209.136 313.942 213 313.942C216.864 313.942 220 317.078 220 320.942C220 324.806 216.864 327.942 213 327.942Z" fill="#263238"/>
<path d="M183.6 183.942H124.4C120.316 183.942 117 180.582 117 176.442C117 172.302 120.316 168.942 124.4 168.942H183.6C187.685 168.942 191 172.302 191 176.442C191 180.582 187.685 183.942 183.6 183.942Z" fill="#263238"/>
<path d="M93.7499 212.942H79.2501C75.248 212.942 72 209.582 72 205.442C72 201.302 75.248 197.942 79.2501 197.942H93.7499C97.752 197.942 101 201.302 101 205.442C101 209.582 97.752 212.942 93.7499 212.942Z" fill="#263238"/>
<path d="M93.7499 183.942H79.2501C75.248 183.942 72 180.582 72 176.442C72 172.302 75.248 168.942 79.2501 168.942H93.7499C97.752 168.942 101 172.302 101 176.442C101 180.582 97.752 183.942 93.7499 183.942Z" fill="#263238"/>
<path d="M93.7499 153.942H79.2501C75.248 153.942 72 150.806 72 146.942C72 143.078 75.248 139.942 79.2501 139.942H93.7499C97.752 139.942 101 143.078 101 146.942C101 150.806 97.752 153.942 93.7499 153.942Z" fill="#263238"/>
<path d="M234.647 241.942H124.353C120.295 241.942 117 238.806 117 234.942C117 231.078 120.295 227.942 124.353 227.942H234.647C238.706 227.942 242 231.078 242 234.942C242 238.806 238.706 241.942 234.647 241.942Z" fill="#263238"/>
<path d="M212.5 298.942H182.5C178.36 298.942 175 295.582 175 291.442C175 287.302 178.36 283.942 182.5 283.942H212.5C216.64 283.942 220 287.302 220 291.442C220 295.582 216.64 298.942 212.5 298.942Z" fill="#263238"/>
<path d="M138.75 153.942H124.25C120.248 153.942 117 150.806 117 146.942C117 143.078 120.248 139.942 124.25 139.942H138.75C142.752 139.942 146 143.078 146 146.942C146 150.806 142.752 153.942 138.75 153.942Z" fill="#263238"/>
<path d="M198.25 212.942H182.75C178.472 212.942 175 209.582 175 205.442C175 201.302 178.472 197.942 182.75 197.942H198.25C202.528 197.942 206 201.302 206 205.442C206 209.582 202.528 212.942 198.25 212.942Z" fill="#263238"/>
<path d="M354 430.942C288.387 430.942 235 378.677 235 314.442C235 250.206 288.387 197.942 354 197.942C419.615 197.942 473 250.206 473 314.442C473 378.677 419.615 430.942 354 430.942ZM354 212.504C296.598 212.504 249.875 258.245 249.875 314.442C249.875 370.639 296.598 416.379 354 416.379C411.403 416.379 458.124 370.639 458.124 314.442C458.124 258.245 411.403 212.504 354 212.504Z" fill="#263238"/>
<path d="M346.775 357.942C346.264 357.942 345.752 357.897 345.241 357.795C341.042 357.003 338.314 353.146 339.151 349.173L354.647 275.856C355.499 271.868 359.761 269.272 363.759 270.093C367.959 270.885 370.686 274.742 369.849 278.715L354.353 352.032C353.609 355.537 350.386 357.942 346.775 357.942Z" fill="#263238"/>
<path d="M390.431 357.942C388.53 357.942 386.628 357.223 385.172 355.8C382.276 352.94 382.276 348.29 385.172 345.43L417.066 313.936L385.188 282.458C382.291 279.597 382.291 274.948 385.188 272.087C388.084 269.227 392.793 269.227 395.69 272.087L432.825 308.758C435.725 311.619 435.725 316.269 432.825 319.129L395.69 355.8C394.234 357.223 392.333 357.942 390.431 357.942Z" fill="#263238"/>
<path d="M317.296 357.942C315.321 357.942 313.346 357.223 311.834 355.8L273.257 319.129C270.248 316.269 270.248 311.619 273.257 308.758L311.834 272.087C314.842 269.227 319.734 269.227 322.743 272.087C325.752 274.948 325.752 279.597 322.743 282.458L289.629 313.936L322.743 345.415C325.752 348.275 325.752 352.925 322.743 355.786C321.246 357.223 319.271 357.942 317.296 357.942Z" fill="#263238"/>
</svg>
